<svg width="91" height="18" viewBox="0 0 91 18" fill="none" xmlns="http://www.w3.org/2000/svg">
<path d="M11.794 14.4128L10.0374 10.8579H7.779L9.87013 6.38286L15.1816 17.0476H20.0748L11.5012 0.736816H8.23905L0 17.0476H4.89325L6.14792 14.4128H11.794Z" fill="#EEEEEE"/>
<path d="M37.6883 11.1506C40.2395 10.3978 41.4105 8.43217 41.4105 6.13192C41.4105 3.16252 39.403 0.736816 35.179 0.736816H26.689V17.0476H30.6203V4.16627H35.4299C36.8519 4.20809 37.4374 5.04454 37.4374 6.0901C37.4374 7.17749 36.81 7.97212 35.3881 7.97212H32.0004L37.1028 17.0058H41.1596L37.6883 11.1506Z" fill="#EEEEEE"/>
<path d="M24.9643 0.736816H20.9075V17.0476H24.9643V0.736816Z" fill="#EEEEEE"/>
<path d="M70.5497 0.694824V9.89579C70.5497 12.6979 68.9187 13.8689 66.9112 13.8689C64.9037 13.8689 63.2726 12.6979 63.2726 9.89579V0.694824H59.2158V9.89579C59.2158 15.7509 62.6453 17.4657 66.9112 17.4657C71.1771 17.4657 74.6483 15.7509 74.6483 9.89579V0.694824H70.5497Z" fill="#EEEEEE"/>
<path d="M52.57 13.5763H46.8403V10.3978H52.57C53.5319 10.3978 54.2847 11.1088 54.2847 11.9871C54.2847 12.8654 53.5319 13.5763 52.57 13.5763ZM46.8403 4.16627H52.4863C53.2391 4.16627 53.9083 4.79361 53.9083 5.54641C53.9083 6.29922 53.2391 6.96837 52.4863 6.92655H46.8403V4.16627ZM55.8321 8.6831C56.8777 7.9303 57.2541 6.67562 57.2541 5.3373C57.2541 2.7443 55.1211 0.736816 52.4863 0.736816H42.9089V17.0476H52.8627C55.6648 17.0476 58.0069 14.9147 58.0069 12.2798C57.9651 10.5651 56.9195 9.26862 55.8321 8.6831Z" fill="#EEEEEE"/>
<path d="M84.8582 7.05048C81.5542 6.33949 80.4249 6.00491 80.4249 4.95935C80.4249 4.03925 81.6378 3.5792 83.478 3.5792C85.2764 3.5792 87.4093 4.33201 88.664 5.08482L89.9605 1.78084C88.0785 0.98621 85.7364 0.233398 82.7252 0.233398C78.752 0.233398 76.2427 2.57547 76.2427 5.4194C76.2427 8.26334 78.292 9.51801 82.3488 10.3963C85.5273 11.0654 86.3638 11.4418 86.3638 12.4038C86.3638 13.3657 85.0673 13.7421 83.3944 13.7421C81.1778 13.7421 79.0866 12.9893 77.0373 12.1528L75.8245 15.415C78.2083 16.5024 80.7177 17.4225 83.6453 17.4225C88.5803 17.4225 90.6297 15.0804 90.6297 12.3201C90.6715 9.85259 88.9568 7.92875 84.8582 7.05048Z" fill="#EEEEEE"/>
</svg>
