<svg width="106" height="29" viewBox="0 0 106 29" fill="none" xmlns="http://www.w3.org/2000/svg">
<path d="M9.57381 15.4087H5.69628L7.75629 8.70779L9.57381 15.4087ZM3.87876 22.1826L5.0905 18.0988H10.0586L11.2704 22.1826H15.3902L11.028 6.68441C10.7857 5.66655 10.3009 5.33936 9.21052 5.33936H3.15164V6.73283H3.63626C4.3632 6.73283 4.72685 6.96317 4.72685 7.52053C4.72685 7.87184 4.72685 8.10218 4.3632 8.9383L0.0012207 22.1826" fill="#EEEEEE"/>
<path d="M20.6 22.1826V6.5754C20.6 5.76358 20.1154 5.33936 19.2671 5.33936H15.5107V6.73283H15.7531C16.4802 6.73283 16.8436 7.03572 16.8436 7.69011V22.1826" fill="#EEEEEE"/>
<path d="M27.3935 22.1826V6.5754C27.3935 5.76358 26.9088 5.33936 26.0606 5.33936H22.3042V6.73283H22.5465C23.2736 6.73283 23.6371 7.03572 23.6371 7.69011V22.1826" fill="#EEEEEE"/>
<path d="M34.2946 6.82989C34.2946 5.71518 33.4463 5.06079 32.1134 5.06079C30.6594 5.06079 29.9323 5.71518 29.9323 6.82989C29.9323 7.9689 30.6594 8.63544 32.1134 8.63544C33.4463 8.63526 34.2946 7.9689 34.2946 6.82989ZM34.1734 22.1826V10.8164C34.1734 10.0289 33.6888 9.56841 32.9617 9.56841H29.2053V10.9378H29.4476C30.1748 10.9378 30.4171 11.2406 30.4171 11.9315V22.1828" fill="#EEEEEE"/>
<path d="M43.1409 16.0639V18.5842C42.414 19.3113 41.5657 19.7234 40.8386 19.7234C40.1117 19.7234 39.748 19.3719 39.748 18.4268C39.748 17.3846 39.9903 16.9849 40.8386 16.6577C41.4446 16.4031 42.0503 16.2456 43.1409 16.0639ZM37.8093 13.0466L38.1728 12.9013C39.1422 12.5136 39.748 12.3681 40.4751 12.235C40.8386 12.1865 41.3234 12.1381 41.5657 12.1381C42.7775 12.1381 43.1409 12.5379 43.1409 13.6527V13.9678C41.4446 14.2466 40.9598 14.3434 39.9905 14.5493C39.5059 14.6704 39.0211 14.8282 38.5365 15.0341C36.9612 15.664 36.2341 16.8759 36.2341 18.7783C36.2341 21.1651 37.2036 22.3043 39.3846 22.3043C40.2328 22.3043 41.0811 22.1103 41.6869 21.7225C42.2928 21.4439 42.5351 21.2985 43.2621 20.6321V21.0199C43.2621 21.8074 43.6256 22.1832 44.3527 22.1832H47.9879V20.8866H47.8667C47.1396 20.8866 46.7761 20.5594 46.7761 19.9052V13.7131C46.7761 10.49 45.6856 9.39941 42.5351 9.39941C41.4446 9.39941 40.4753 9.52057 39.5059 9.75091C38.5365 9.98107 38.0518 10.1507 36.9612 10.7203" fill="#EEEEEE"/>
<path d="M53.6852 22.1808V13.6259C54.5333 12.8382 55.1393 12.5353 55.9874 12.5353C56.8356 12.5353 57.0781 12.8989 57.0781 14.1832V22.1808H60.8345V13.5774C60.8345 11.8083 60.5922 11.045 60.1076 10.3784C59.5016 9.72403 58.7747 9.42114 57.6841 9.42114C56.2299 9.42114 55.1395 9.95419 53.4431 11.4204V10.7419C53.4431 9.9542 53.0796 9.56642 52.3525 9.56642H48.7173V10.9358H48.8384C49.5654 10.9358 49.929 11.2387 49.929 11.9295V22.1808" fill="#EEEEEE"/>
<path d="M72.467 19.7735H66.8931L72.2247 12.1638V9.57076H64.2274C63.258 9.57076 62.8945 9.95847 62.8945 10.8915V13.1817H64.2274V12.9272C64.2274 12.2365 64.5909 11.9578 65.3179 11.9578H68.226L62.7732 19.5675V22.1848H72.467" fill="#EEEEEE"/>
<path d="M93.9103 21.4939V7.2198C93.9103 6.06866 93.4256 5.69301 92.335 5.69301H89.0634V7.26824H89.4268C90.0327 7.26824 90.2751 7.4985 90.2751 8.2013V21.4939H93.9103ZM95.8491 21.4939H99.3631V10.7216C99.3631 9.63108 98.8783 9.19492 97.7878 9.19492H95.8491V21.4939ZM88.3364 21.4939V9.19492H86.3975C85.307 9.19492 84.8224 9.63108 84.8224 10.7216V21.4939H88.3364ZM103.483 14.3205C103.483 20.9971 98.6361 25.8682 92.0927 25.8682C85.5494 25.8682 80.7025 20.9971 80.7025 14.3205C80.7025 7.64389 85.5494 2.77271 92.0927 2.77271C98.6361 2.77271 103.483 7.64389 103.483 14.3205ZM105.785 14.3205C105.785 6.50486 99.969 0.640128 92.0927 0.640128C84.3377 0.640128 78.4001 6.50486 78.4001 14.3205C78.4001 22.1604 84.3377 28.0251 92.0927 28.0251C99.969 28.0251 105.785 22.1604 105.785 14.3205Z" fill="#EEEEEE"/>
</svg>
