<svg width="115" height="23" viewBox="0 0 115 23" fill="none" xmlns="http://www.w3.org/2000/svg">
<path d="M45.8677 17.5504C41.5611 20.7281 35.3311 22.4006 29.9792 22.4006C22.453 22.4006 15.6794 19.641 10.5366 14.9998C10.1184 14.6235 10.4948 14.1218 10.9965 14.4145C16.5157 17.634 23.3311 19.5573 30.3973 19.5573C35.2057 19.5573 40.4322 18.5957 45.2406 16.5051C45.9932 16.2124 46.6204 17.0068 45.8677 17.5504Z" fill="#EEEEEE"/>
<path d="M47.6674 15.461C47.1238 14.792 44.0298 15.1683 42.6082 15.2937C42.19 15.3355 42.1064 15.001 42.5245 14.7083C44.9914 12.9941 49.0054 13.4958 49.4653 14.0812C49.9671 14.6665 49.3399 18.7223 47.0402 20.6038C46.7057 20.8965 46.3712 20.7711 46.5385 20.353C47.082 19.0986 48.211 16.1718 47.6674 15.461Z" fill="#EEEEEE"/>
<path d="M42.7332 2.53982V0.867339C42.7332 0.616467 42.9423 0.449219 43.1514 0.449219H50.6775C50.9284 0.449219 51.0956 0.616467 51.0956 0.867339V2.33076C51.0956 2.58163 50.9284 2.87432 50.5521 3.37606L46.6636 8.93706C48.127 8.89525 49.6322 9.10431 50.9702 9.85693C51.2629 10.0242 51.3465 10.275 51.3883 10.5259V12.3238C51.3883 12.5747 51.0956 12.8256 50.8448 12.742C48.5033 11.5294 45.451 11.404 42.9005 12.742C42.6078 12.9092 42.3569 12.5747 42.3569 12.3238V10.6514C42.3569 10.3587 42.3569 9.89874 42.6496 9.48062L47.2071 2.99975H43.235C42.9423 2.95794 42.7332 2.79069 42.7332 2.53982Z" fill="#EEEEEE"/>
<path d="M15.2614 13.0344H13.0036C12.7945 13.0344 12.5854 12.8672 12.5854 12.6163V0.908919C12.5854 0.658047 12.7945 0.490798 13.0454 0.490798H15.1778C15.4287 0.490798 15.5959 0.658047 15.5959 0.908919V2.45596H15.6377C16.1813 0.950729 17.2266 0.281738 18.6482 0.281738C20.1116 0.281738 20.9897 0.950729 21.6168 2.45596C22.1604 0.950729 23.4148 0.281738 24.7946 0.281738C25.7562 0.281738 26.8015 0.699855 27.4287 1.57791C28.1813 2.53958 28.0141 4.00301 28.0141 5.25737V12.5745C28.0141 12.8253 27.8468 12.9926 27.596 12.9926H25.2963C25.0872 12.9926 24.8782 12.8253 24.8782 12.5745V6.34448C24.8782 5.84274 24.92 4.63018 24.8364 4.17025C24.6691 3.37582 24.1674 3.16677 23.4984 3.16677C22.9548 3.16677 22.3695 3.54308 22.1186 4.12844C21.9095 4.71381 21.9095 5.7173 21.9095 6.38629V12.5745C21.9095 12.8253 21.7423 12.9926 21.4914 12.9926H19.2336C18.9827 12.9926 18.8154 12.8253 18.8154 12.5745V6.34448C18.8154 5.04831 19.0245 3.12495 17.3938 3.12495C15.7632 3.12495 15.8468 5.0065 15.8468 6.34448V12.5745C15.7214 12.8253 15.5123 13.0344 15.2614 13.0344Z" fill="#EEEEEE"/>
<path d="M57.6163 0.239746C61.0449 0.239746 62.8846 3.16659 62.8846 6.88786C62.8846 10.4419 60.8776 13.2851 57.6163 13.2851C54.3131 13.2851 52.4734 10.3583 52.4734 6.76242C52.4734 3.08297 54.2713 0.239746 57.6163 0.239746ZM57.6163 2.62303C55.9438 2.62303 55.8184 4.92269 55.8184 6.38611C55.8184 7.80772 55.7765 10.86 57.5745 10.86C59.3724 10.86 59.456 8.39309 59.456 6.88786C59.456 5.88437 59.4142 4.71363 59.1215 3.75195C58.8706 2.91571 58.3689 2.62303 57.6163 2.62303Z" fill="#EEEEEE"/>
<path d="M67.2747 13.0342H65.0169C64.8078 13.0342 64.5988 12.867 64.5988 12.6161V0.908741C64.5988 0.657869 64.766 0.490621 65.0169 0.490621H67.1493C67.3583 0.490621 67.5256 0.657864 67.5674 0.825112V2.62303H67.6092C68.2364 1.03417 69.1563 0.239746 70.7033 0.239746C71.7486 0.239746 72.7521 0.616056 73.3793 1.61954C74.0065 2.58122 74.0065 4.12827 74.0065 5.25719V12.6579C73.9646 12.867 73.7974 13.0342 73.5883 13.0342H71.2887C71.0796 13.0342 70.8706 12.867 70.8706 12.6579V6.26068C70.8706 4.9645 70.996 3.08297 69.4071 3.08297C68.8636 3.08297 68.32 3.45928 68.0691 4.04464C67.7347 4.75545 67.6928 5.46625 67.6928 6.26068V12.5743C67.7347 12.8252 67.4838 13.0342 67.2747 13.0342Z" fill="#EEEEEE"/>
<path d="M75.4308 12.1127C75.4308 11.4856 75.9325 11.0256 76.5179 11.0256C77.1451 11.0256 77.6468 11.4856 77.6468 12.1127C77.6468 12.6981 77.1451 13.1999 76.5179 13.1999C75.9325 13.158 75.4308 12.6981 75.4308 12.1127Z" fill="#EEEEEE"/>
<path d="M99.7265 13.035C99.4756 13.035 99.3083 12.8678 99.3083 12.6169V0.90954C99.3083 0.70048 99.4756 0.533232 99.7265 0.49142H100.563C100.814 0.49142 100.981 0.658668 101.023 0.90954V2.62383C101.608 1.24403 102.695 0.19873 104.117 0.19873H104.2H104.284C105.747 0.19873 106.876 1.28584 107.253 2.91651C107.88 1.32766 109.092 0.19873 110.681 0.19873H110.765H110.848C111.936 0.19873 113.023 0.909536 113.566 1.99665C114.11 3.04195 114.068 4.42175 114.068 5.59249V12.5751C114.068 12.826 113.901 12.9932 113.65 12.9932H112.646C112.437 12.9932 112.228 12.826 112.228 12.6169V5.50886C112.228 4.67262 112.27 3.79457 111.936 3.04195C111.559 2.24752 110.932 1.74578 110.179 1.70397C109.385 1.74578 108.632 2.33114 108.172 3.12557C107.545 4.12906 107.545 5.04893 107.545 6.21967V12.6169C107.545 12.826 107.378 12.9932 107.127 12.9932H106.124C105.873 12.9932 105.706 12.826 105.706 12.5751L105.664 5.04893C105.664 4.33812 105.622 3.54369 105.329 2.91651C104.953 2.1639 104.284 1.70397 103.573 1.70397C102.862 1.74578 102.11 2.33114 101.692 2.91651C101.148 3.75275 101.064 4.75625 101.064 5.80155V12.5751C101.064 12.826 100.897 12.9932 100.646 12.9932H99.7265V13.035Z" fill="#EEEEEE"/>
<path d="M92.781 13.2855C89.5196 13.2855 88.098 9.98232 88.098 6.63736C88.098 3.16696 89.7705 0.156494 93.0737 0.156494H93.1573H93.2409C96.4186 0.156494 98.0075 3.3342 98.0075 6.67917C98.0075 10.1914 96.2514 13.2855 92.9482 13.2855H92.9064H92.781ZM93.0318 11.6548C94.0771 11.613 94.9552 10.944 95.4151 9.85688C95.8751 8.89521 95.9587 7.72447 95.9587 6.63736C95.9587 5.46662 95.7914 4.25407 95.2479 3.20877C94.7461 2.33072 93.9099 1.78716 92.99 1.74535C91.9865 1.78716 91.0667 2.49796 90.6067 3.54326C90.1886 4.46313 90.105 5.67568 90.105 6.67917C90.105 7.80809 90.2722 9.14608 90.7322 10.1078C91.1921 11.0276 92.0702 11.6548 93.0318 11.6548Z" fill="#EEEEEE"/>
<path d="M82.6227 11.6134C84.0861 11.5716 84.8806 10.4009 85.1732 8.89563C85.215 8.72838 85.3823 8.56114 85.5914 8.56114H86.553C86.8039 8.60295 86.9712 8.72838 86.9712 8.97926C86.5112 11.5716 84.9642 13.3277 82.7481 13.3277H82.7063H82.6227C79.4032 13.3277 77.9816 10.1082 77.9816 6.80503C77.9816 3.50188 79.4032 0.19873 82.6227 0.19873H82.7063H82.79C85.0478 0.19873 86.6367 1.91302 86.9712 4.50537C86.9712 4.67262 86.8039 4.88168 86.5948 4.88168H85.5914C85.3823 4.83987 85.215 4.67262 85.1732 4.46356C84.9224 3.04195 84.1279 1.87121 82.7481 1.87121C80.5321 1.91302 79.9049 4.63081 79.9049 6.72141C79.9049 8.64476 80.4485 11.5298 82.6227 11.6134Z" fill="#EEEEEE"/>
<path d="M40.8155 10.8598C40.3974 10.2744 39.9375 9.81447 39.9375 8.72735V5.17333C39.9375 3.62629 40.0211 2.24649 38.934 1.20119C38.0559 0.364949 36.5925 0.0722656 35.4636 0.0722656C33.3312 0.0722656 30.8643 0.908504 30.3625 3.58447C30.3207 3.87716 30.5298 4.0444 30.697 4.08622L32.913 4.33709C33.1221 4.29528 33.2894 4.12803 33.3312 3.91897C33.4984 2.99911 34.3347 2.53917 35.1709 2.53917C35.6308 2.53917 36.1744 2.70642 36.4671 3.16635C36.7598 3.62629 36.7598 4.25347 36.7598 4.83883V5.13152C35.4218 5.29876 33.7075 5.38239 32.4531 5.92595C30.9897 6.55313 29.9862 7.8493 29.9862 9.68903C29.9862 12.0723 31.4914 13.2431 33.4148 13.2431C35.0455 13.2431 35.9235 12.8667 37.1779 11.5706C37.596 12.1978 37.7214 12.4486 38.5159 13.1176C38.6831 13.2012 38.8922 13.1594 39.0176 13.0758C39.4775 12.6577 40.3138 11.9469 40.7737 11.5706C40.9828 11.3197 40.941 11.0688 40.8155 10.8598ZM36.2998 9.81446C35.9235 10.4416 35.3381 10.8598 34.711 10.8598C33.8329 10.8598 33.3312 10.1908 33.3312 9.18728C33.3312 7.26393 35.0873 6.88762 36.7598 6.88762V7.38937C36.7598 8.30923 36.7598 9.06185 36.2998 9.81446Z" fill="#EEEEEE"/>
<path d="M10.7875 10.8598C10.3694 10.2744 9.90945 9.81447 9.90945 8.72735V5.17333C9.90945 3.62629 10.0349 2.24649 8.90596 1.20119C8.02791 0.364949 6.56449 0.0722656 5.47738 0.0722656C3.30315 0.0722656 0.878052 0.908504 0.334496 3.58447C0.292684 3.87716 0.501744 4.0444 0.668992 4.08622L2.92684 4.33709C3.09409 4.29528 3.26134 4.12803 3.34496 3.91897C3.51221 2.99911 4.30664 2.53917 5.18469 2.53917C5.64462 2.53917 6.18818 2.70642 6.43905 3.16635C6.77355 3.62629 6.73174 4.25347 6.73174 4.83883V5.13152C5.39375 5.29876 3.67946 5.38239 2.4251 5.92595C1.00349 6.55313 0 7.8493 0 9.68903C0 12.0723 1.50523 13.2431 3.42859 13.2431C5.05925 13.2431 5.93731 12.8667 7.19167 11.5706C7.60979 12.1978 7.73522 12.4486 8.52965 13.1176C8.6969 13.2012 8.94777 13.1594 9.07321 13.0758C9.53314 12.6577 10.3694 11.9469 10.8293 11.5706C10.9548 11.3197 10.9129 11.0688 10.7875 10.8598ZM6.2718 9.81446C5.8955 10.4416 5.31013 10.8598 4.68295 10.8598C3.80489 10.8598 3.30315 10.1908 3.30315 9.18728C3.30315 7.26393 5.05925 6.88762 6.68992 6.88762V7.38937C6.68992 8.30923 6.73174 9.06185 6.2718 9.81446Z" fill="#EEEEEE"/>
</svg>
