<svg width="94" height="18" viewBox="0 0 94 18" fill="none" xmlns="http://www.w3.org/2000/svg">
<path d="M88.1384 15.1675C88.1384 13.8056 89.244 12.7007 90.6052 12.7007C91.9671 12.7007 93.0713 13.8056 93.0713 15.1675C93.0713 16.5294 91.9671 17.6336 90.6052 17.6336C89.244 17.6336 88.1384 16.5294 88.1384 15.1675Z" fill="#EEEEEE"/>
<path d="M9.46717 8.63158C9.46717 7.06911 9.16528 5.90993 8.56142 5.15475C7.95682 4.40028 7.04098 4.02339 5.80973 4.02339H4.49997V13.5781H5.50205C6.86966 13.5781 7.87185 13.1727 8.50998 12.359C9.14735 11.5467 9.46717 10.304 9.46717 8.63158ZM14.1381 8.46885C14.1381 11.3154 13.3729 13.5088 11.8426 15.0485C10.3122 16.5888 8.16095 17.359 5.38787 17.359H-0.000488281V0.301758H5.764C8.43783 0.301758 10.5021 1.00197 11.9568 2.4017C13.4108 3.80214 14.1381 5.82357 14.1381 8.46885Z" fill="#EEEEEE"/>
<path d="M29.0554 17.3613H33.3431V0.232666H29.0554V17.3613Z" fill="#EEEEEE"/>
<path d="M39.3699 10.9706C39.3699 12.0627 39.5127 12.8956 39.7975 13.4681C40.083 14.0413 40.5612 14.3275 41.2336 14.3275C41.8988 14.3275 42.3692 14.0413 42.6433 13.4681C42.9174 12.8956 43.0537 12.0627 43.0537 10.9706C43.0537 9.8842 42.9152 9.06477 42.6376 8.51158C42.3592 7.95697 41.8846 7.6793 41.2116 7.6793C40.5534 7.6793 40.083 7.95556 39.7975 8.50517C39.5127 9.0555 39.3699 9.87706 39.3699 10.9706ZM47.4178 10.9706C47.4178 13.0513 46.8724 14.6744 45.7789 15.8379C44.6862 17.002 43.1565 17.5845 41.1901 17.5845C39.3043 17.5845 37.8031 16.9892 36.6889 15.7986C35.5733 14.608 35.0159 12.9991 35.0159 10.9706C35.0159 8.89633 35.562 7.28459 36.6555 6.1354C37.7489 4.98621 39.2821 4.41162 41.2564 4.41162C42.4763 4.41162 43.5556 4.67787 44.4906 5.20964C45.4264 5.74141 46.1488 6.50302 46.6562 7.49518C47.1645 8.48591 47.4178 9.64508 47.4178 10.9706Z" fill="#EEEEEE"/>
<path d="M49.1245 17.3599H53.4129V10.8045V4.63672H49.1245V17.3599Z" fill="#EEEEEE"/>
<path d="M49.1245 3.0987H53.4129V0.231445H49.1245V3.0987Z" fill="#EEEEEE"/>
<path d="M62.1001 14.1168C62.679 14.1168 63.3684 13.9698 64.1728 13.6779V16.8791C63.5947 17.1332 63.0451 17.3153 62.5226 17.4231C62.0001 17.5323 61.3869 17.5865 60.6853 17.5865C59.2456 17.5865 58.2078 17.2246 57.5703 16.5023C56.9358 15.7799 56.6175 14.6707 56.6175 13.1739V7.92905H55.1157V4.63993H56.6175V1.39079L60.9388 0.63916V4.63993H63.6747V7.92905H60.9388V12.8813C60.9388 13.705 61.3263 14.1168 62.1001 14.1168Z" fill="#EEEEEE"/>
<path d="M72.028 14.1168C72.6069 14.1168 73.2965 13.9698 74.1009 13.6779V16.8791C73.5235 17.1332 72.973 17.3153 72.4506 17.4231C71.9274 17.5323 71.3164 17.5865 70.6133 17.5865C69.1736 17.5865 68.1358 17.2246 67.4998 16.5023C66.8639 15.7799 66.5455 14.6707 66.5455 13.1739V7.92905H65.043V4.63993H66.5455V1.34155L70.866 0.63916V4.63993H73.6033V7.92905H70.866V12.8813C70.866 13.705 71.2536 14.1168 72.028 14.1168Z" fill="#EEEEEE"/>
<path d="M79.5125 9.42145C79.571 8.7248 79.7703 8.21444 80.11 7.88824C80.4513 7.56276 80.8724 7.40003 81.3763 7.40003C81.9259 7.40003 82.3627 7.58274 82.6868 7.95105C83.0129 8.31722 83.1828 8.8076 83.1964 9.42145H79.5125ZM85.5597 5.91252C84.5404 4.91322 83.0943 4.41284 81.2235 4.41284C79.257 4.41284 77.7439 4.98743 76.6832 6.13662C75.6232 7.28581 75.0928 8.93467 75.0928 11.0832C75.0928 13.1638 75.666 14.7684 76.8095 15.8947C77.9536 17.0211 79.5603 17.585 81.6296 17.585C82.6232 17.585 83.4784 17.5172 84.195 17.3823C84.9074 17.2488 85.5969 17.0075 86.2657 16.6592L85.6068 13.7919C85.1208 13.9904 84.6582 14.1431 84.2214 14.2438C83.5904 14.3901 82.8981 14.4636 82.1443 14.4636C81.3178 14.4636 80.6654 14.2616 80.1871 13.8576C79.7089 13.4529 79.4541 12.8947 79.4248 12.1838H87.0893V10.2302C87.0893 8.35078 86.5797 6.9111 85.5597 5.91252Z" fill="#EEEEEE"/>
<path d="M19.8316 9.42145C19.8901 8.7248 20.0893 8.21444 20.429 7.88824C20.7695 7.56276 21.1914 7.40003 21.6961 7.40003C22.2443 7.40003 22.681 7.58274 23.0058 7.95105C23.332 8.31722 23.5012 8.8076 23.5162 9.42145H19.8316ZM25.8795 5.91252C24.8595 4.91322 23.4141 4.41284 21.5426 4.41284C19.5753 4.41284 18.0628 4.98743 17.0028 6.13662C15.9429 7.28581 15.4119 8.93467 15.4119 11.0832C15.4119 13.1638 15.9844 14.7684 17.1293 15.8947C18.2727 17.0211 19.8794 17.585 21.9487 17.585C22.9423 17.585 23.7973 17.5172 24.514 17.3823C25.2263 17.2488 25.916 17.0075 26.5855 16.6592L25.9259 13.7919C25.4398 13.9904 24.9773 14.1431 24.5412 14.2438C23.9088 14.3901 23.2171 14.4636 22.4633 14.4636C21.6374 14.4636 20.9844 14.2616 20.5062 13.8576C20.0272 13.4529 19.7731 12.8947 19.7439 12.1838H27.4084V10.2302C27.4084 8.35078 26.8988 6.9111 25.8795 5.91252Z" fill="#EEEEEE"/>
</svg>
