<svg width="48" height="40" viewBox="0 0 48 40" fill="none" xmlns="http://www.w3.org/2000/svg">
<path d="M34.4389 0L21.4745 13.0321H10.4745L-0.000488281 23.5071H12.814V36.5391L25.846 23.5071H36.7709L47.2459 13.0321H34.4389V0ZM31.7995 6.32852V13.0321H25.0885L31.7995 6.32852ZM11.5317 15.6712H18.8425L13.6389 20.8674H6.33547L11.5317 15.6712ZM22.6066 15.6712H29.9174L24.6386 20.8674H17.3352L22.6066 15.6712ZM33.6068 15.6712H40.9176L35.714 20.8674H28.4105L33.6068 15.6712ZM22.1569 23.432L15.4533 30.1355V23.5071L22.1569 23.432Z" fill="#EEEEEE"/>
<path d="M25.7729 31.3486V39.1017H27.9624C30.2957 39.1017 32.4088 38.3528 32.4088 35.2626C32.4088 32.0961 30.2957 31.3486 27.9624 31.3486H25.7729ZM27.3551 32.5484H28.2624C29.5473 32.5484 30.8192 33.5266 30.8192 35.2626C30.8192 36.9223 29.547 37.902 28.2624 37.902H27.3551V32.5484Z" fill="#EEEEEE"/>
<path d="M43.1906 31.3346C43.0082 31.3295 42.8294 31.3399 42.6507 31.3495H39.8613V39.1025H41.4435V36.2381H41.6683H42.5756C43.2491 36.2381 43.478 36.4662 43.7002 37.0704L44.54 39.1025H46.4221L45.1399 36.3957C44.9107 35.9444 44.8325 35.7927 44.4575 35.5636C44.4575 35.5636 45.8163 35.1886 45.7397 33.6815C45.74 31.8341 44.4666 31.3691 43.1906 31.3346ZM41.4435 32.624H42.5007C43.3271 32.624 44.0059 32.8549 44.0752 33.6812V33.8986C44.0059 34.7319 43.3271 34.9558 42.5007 34.9558H41.4435V32.624Z" fill="#EEEEEE"/>
<path d="M33.9827 39.1016H38.58V37.8239H35.5591V31.3447H33.9827V39.1016Z" fill="#EEEEEE"/>
</svg>
