<svg width="75" height="28" viewBox="0 0 75 28" fill="none" xmlns="http://www.w3.org/2000/svg">
<path d="M1.7478 20.2146C3.2767 22.9751 5.69746 25.0561 8.54291 26.1603C6.67426 25.0561 5.01795 23.7396 3.36164 22.0833C2.85201 21.5312 2.29991 20.979 1.7478 20.2146Z" fill="#EEEEEE"/>
<path d="M0.336914 16.6042C0.421853 17.1564 0.67667 17.7085 0.889017 18.2181C1.78088 19.4072 2.63026 20.6388 3.86188 21.7431C5.94288 23.8241 8.23623 25.4804 10.7844 26.7969C11.3365 26.9243 11.9735 27.0093 12.5256 27.0093C9.46785 25.6927 6.57992 23.8241 4.15916 21.3184C2.63026 19.8744 1.44112 18.2181 0.336914 16.6042Z" fill="#EEEEEE"/>
<path d="M-0.000488281 13.8452C-0.000488281 14.2699 0.12692 14.7371 0.12692 15.1618C1.31606 17.2428 2.76003 19.2388 4.50127 20.9801C7.26179 23.7406 10.5319 25.8216 13.9295 27.1381C14.3542 27.1381 14.8213 27.0107 15.1186 27.0107C11.3813 25.6942 7.85636 23.6132 4.79856 20.6403C2.84496 18.5593 1.31606 16.266 -0.000488281 13.8452Z" fill="#EEEEEE"/>
<path d="M0.122192 11.7634V12.7402C1.31134 15.5007 2.96765 18.0064 5.261 20.2148C8.4462 23.5275 12.3109 25.6085 16.3455 26.7976C16.6853 26.6702 17.025 26.6702 17.3223 26.5853C13.0329 25.4811 8.95584 23.2726 5.55828 19.8751C3.17999 17.4543 1.43875 14.6089 0.122192 11.7634Z" fill="#EEEEEE"/>
<path d="M0.549261 9.89502C0.421853 10.1074 0.336914 10.4471 0.336914 10.7869C1.52606 13.9721 3.39471 16.9025 6.02782 19.5356C9.55278 23.0605 13.7148 25.2265 18.344 26.2458C18.5563 26.1183 18.8961 26.0334 19.2358 25.906C14.4792 25.0566 9.97748 22.7208 6.36758 19.2383C3.60706 16.4778 1.65347 13.2926 0.549261 9.89502Z" fill="#EEEEEE"/>
<path d="M1.11112 8.23877C0.983709 8.45112 0.898771 8.79087 0.771362 9.00322C1.87557 12.6131 3.82916 15.9257 6.71708 18.7712C10.4544 22.5085 15.1685 24.7169 20.01 25.4814C20.2224 25.354 20.4347 25.1416 20.6895 25.0567C15.7206 24.5046 10.8791 22.2962 7.05684 18.4739C4.16892 15.501 2.21532 11.9761 1.11112 8.23877Z" fill="#EEEEEE"/>
<path d="M5.81697 15.3718C5.05252 15.2444 4.37301 14.4799 4.37301 13.7155V13.3757C3.18386 11.3372 2.292 9.1288 1.7399 6.83545C1.61249 7.0478 1.52755 7.26014 1.40015 7.5999C2.37694 11.4221 4.37301 15.0745 7.43081 18.1323C11.2955 21.9546 16.222 24.163 21.2758 24.6301C21.4882 24.5027 21.7005 24.2904 21.9554 24.2055C16.8166 23.8232 11.7627 21.6573 7.81303 17.7076C7.04858 17.0281 6.36907 16.2637 5.81697 15.3718Z" fill="#EEEEEE"/>
<path d="M5.05834 12.4013C3.8692 10.1929 2.97734 7.89955 2.63759 5.6062C2.51018 5.81855 2.42524 5.94596 2.21289 6.1583C2.63759 8.45165 3.40204 10.7875 4.63365 12.8685C4.71859 12.6561 4.846 12.5287 5.05834 12.4013Z" fill="#EEEEEE"/>
<path d="M6.92653 15.2881C6.79912 15.2881 6.58677 15.4155 6.50183 15.4155C6.92653 16.1799 7.60604 16.732 8.15814 17.4116C12.2352 21.3612 17.374 23.5696 22.5553 23.782C22.7676 23.5696 22.895 23.3573 23.1074 23.2299C17.8412 23.1025 12.575 21.0215 8.6253 17.0718C8.03073 16.4772 7.47863 15.8402 6.92653 15.2881Z" fill="#EEEEEE"/>
<path d="M20.9786 22.508C21.8705 22.6354 22.7199 22.6354 23.6117 22.6354C23.7392 22.508 23.8241 22.2956 23.9515 22.2107C23.187 22.423 22.2952 22.5505 21.4458 22.5505H20.9786V22.508Z" fill="#EEEEEE"/>
<path d="M9.34128 16.2652C8.78918 15.7131 8.15213 15.076 7.68497 14.5239C7.55756 14.6513 7.47262 14.8637 7.34521 14.9486C7.76991 15.5007 8.32201 16.1378 8.87412 16.6899C11.7196 19.4504 15.0322 21.1916 18.6421 22.0835C17.5379 21.7437 16.5611 21.319 15.6692 20.6395C13.4183 19.6627 11.2099 18.1338 9.34128 16.2652Z" fill="#EEEEEE"/>
<path d="M6.02926 11.9754C4.5853 9.682 3.82085 7.13384 3.48109 4.50073C3.35368 4.71308 3.26874 4.84049 3.0564 5.05283C3.39615 7.55853 4.1606 9.89435 5.34975 12.0603C5.60456 12.1028 5.81691 11.9754 6.02926 11.9754Z" fill="#EEEEEE"/>
<path d="M14.1846 19.1109C14.0572 18.8986 13.8449 18.6862 13.7599 18.4314C12.4434 17.667 11.2542 16.6902 10.0226 15.4586C6.62505 12.1459 4.84133 7.899 4.54405 3.48218C4.3317 3.69452 4.20429 3.82193 3.99194 4.03428C4.3317 6.79479 5.18109 9.51284 6.62505 12.061C7.3895 12.2734 7.9416 12.8255 7.9416 13.7173V13.9297C8.4937 14.5667 9.04581 15.2462 9.68285 15.9257C11.1268 17.3697 12.7406 18.5588 14.5244 19.4507C14.397 19.3233 14.397 19.2383 14.1846 19.1109Z" fill="#EEEEEE"/>
<path d="M10.7866 14.8213C7.38902 11.5087 5.6053 7.13436 5.52036 2.76001C5.30802 2.88742 5.18061 3.09977 4.96826 3.1847C5.18061 7.55906 7.04926 11.8485 10.3619 15.1611C11.2537 16.0529 12.2305 16.8174 13.2073 17.4544C13.0799 17.2421 12.995 16.9023 12.7826 16.5626C12.1031 16.0529 11.4236 15.5008 10.7866 14.8213Z" fill="#EEEEEE"/>
<path d="M17.9269 18.134C18.9037 18.8985 20.1353 19.4506 21.5368 19.4506C22.3012 19.4506 22.9807 19.3232 23.6178 19.0259C21.6642 19.0259 19.7955 18.7711 17.9269 18.134Z" fill="#EEEEEE"/>
<path d="M11.4283 14.0552C8.11565 10.7426 6.50181 6.49568 6.50181 2.07886C6.28946 2.20627 6.16205 2.2912 5.94971 2.41861C6.07712 6.79297 7.69095 11.2098 11.131 14.4799C11.5557 14.9046 12.1078 15.3718 12.5749 15.7965C12.5749 15.4567 12.4475 15.2444 12.4475 14.9046C12.1078 14.6073 11.768 14.395 11.4283 14.0552Z" fill="#EEEEEE"/>
<path d="M12.3119 13.503L12.1845 13.3756C8.91439 10.1055 7.34302 5.81604 7.47043 1.56909C7.34302 1.56909 7.13067 1.6965 7.04573 1.78144C6.91833 6.07085 8.4897 10.4452 11.8873 13.7578C12.0147 13.8852 12.0996 14.0976 12.3119 14.3099V13.503Z" fill="#EEEEEE"/>
<path d="M16.6029 16.479C16.7303 16.6914 16.8153 17.0311 16.9427 17.2435C19.4908 18.2203 22.1239 18.6874 24.757 18.56C24.9694 18.3477 25.3091 18.1353 25.5215 17.8805C22.5062 18.2203 19.321 17.7956 16.6029 16.479Z" fill="#EEEEEE"/>
<path d="M16.1377 15.0759C16.2651 15.4157 16.2651 15.628 16.35 15.8404C19.3229 17.3693 22.8479 17.9214 26.0331 17.3693L26.1605 17.2419C26.2879 17.0295 26.5002 16.9021 26.5002 16.6898C23.0602 17.3693 19.3229 16.9021 16.1377 15.0759Z" fill="#EEEEEE"/>
<path d="M12.3965 12.1892C9.55102 9.00402 8.23446 4.92695 8.53175 0.977295C8.40434 1.1047 8.19199 1.18964 7.97965 1.18964C7.7673 5.35165 9.16879 9.64106 12.354 12.8263V12.6139V12.1892H12.3965Z" fill="#EEEEEE"/>
<path d="M9.68583 0.679688C9.47348 0.807096 9.34607 0.807096 9.13372 0.892035C8.79397 4.62935 10.0256 8.4516 12.5313 11.5519C12.6587 11.4245 12.7436 11.2121 12.7436 10.9998C10.3229 8.0269 9.34607 4.28959 9.68583 0.679688Z" fill="#EEEEEE"/>
<path d="M17.378 14.5247C16.9533 14.3124 16.4861 14.1 16.1888 13.8452V14.5247C19.3741 16.3934 23.2388 16.9455 26.8487 16.181C26.8487 15.9687 26.9761 15.7563 26.9761 15.6289V15.5015C24.2156 16.266 21.1578 16.181 18.5247 15.0768H17.4205V14.5247H17.378Z" fill="#EEEEEE"/>
<path d="M16.1377 13.2918C16.4775 13.6316 16.9021 13.7165 17.3268 13.9714V13.4193C16.9021 13.2069 16.5624 12.9946 16.1377 12.7397V13.2918Z" fill="#EEEEEE"/>
<path d="M19.9972 15.0755C22.2905 15.6276 24.7113 15.6276 27.0471 14.9481V14.396C27.0471 14.5234 26.9197 14.5234 26.8348 14.5234V15.0755H19.9972Z" fill="#EEEEEE"/>
<path d="M10.7834 0.466064H10.2313C9.80661 3.99103 10.656 7.60093 12.9918 10.4464C13.1192 10.319 13.2042 10.1066 13.2042 9.89428C11.0807 7.13377 10.3162 3.65127 10.7834 0.466064Z" fill="#EEEEEE"/>
<path d="M13.8494 8.91645C11.9807 6.41076 11.3012 3.22555 11.7684 0.252686C11.641 0.252686 11.4286 0.252686 11.2163 0.380094C10.7916 3.43789 11.5561 6.75051 13.5096 9.51103C13.6371 9.34115 13.722 9.1288 13.8494 8.91645Z" fill="#EEEEEE"/>
<path d="M27.013 13.632V13.4197C26.8856 13.4197 26.8006 13.5471 26.6732 13.5471C26.6732 13.6745 26.8006 13.8868 26.8006 13.9718C26.8006 13.9718 27.013 13.9718 27.013 13.8444V13.632Z" fill="#EEEEEE"/>
<path d="M16.2706 12.1027C16.6104 12.4424 16.9501 12.6548 17.3748 12.8671V12.315H17.5022C17.0775 12.1027 16.7378 11.8903 16.398 11.6355C16.3556 11.7629 16.2706 11.9753 16.2706 12.1027Z" fill="#EEEEEE"/>
<path d="M27.0161 12.8666V12.4419C26.8038 12.4419 26.6764 12.4419 26.5914 12.5693V12.994C26.8038 12.9515 26.9312 12.8666 27.0161 12.8666Z" fill="#EEEEEE"/>
<path d="M12.8697 0.126221H12.3176C11.7655 3.09908 12.445 6.07194 14.1862 8.57764C14.3136 8.36529 14.3986 8.23789 14.526 8.15295C12.8697 5.73219 12.4025 2.88673 12.8697 0.126221Z" fill="#EEEEEE"/>
<path d="M19.8731 12.3143C18.7688 11.9745 17.6646 11.3375 16.8153 10.658C16.6878 10.7854 16.6029 10.8703 16.6029 11.0827C17.155 11.5073 17.7921 11.9745 18.4716 12.2718H19.8731V12.3143Z" fill="#EEEEEE"/>
<path d="M13.9757 0.126221H13.6359H13.4236C12.8715 2.75933 13.2962 5.51984 14.8675 7.81319C14.995 7.68578 15.2073 7.60084 15.2922 7.47344C13.8483 5.26502 13.4236 2.54698 13.9757 0.126221Z" fill="#EEEEEE"/>
<path d="M26.9183 11.8912V11.3391C26.7059 11.3391 26.4936 11.4665 26.2388 11.5515C26.3662 11.6789 26.4511 11.8912 26.4511 11.9762C26.5785 11.9762 26.7909 11.8912 26.9183 11.8912Z" fill="#EEEEEE"/>
<path d="M22.842 12.3158V11.8911C20.8459 11.7637 18.9773 11.1266 17.4484 9.89502C17.321 9.89502 17.321 10.0224 17.321 10.0224C17.1935 10.1498 17.1086 10.1498 16.9812 10.2348C18.5101 11.339 20.039 12.1034 21.8227 12.3158H22.842Z" fill="#EEEEEE"/>
<path d="M14.9454 0.126221H14.3933C13.9686 2.41957 14.2659 5.05268 15.7099 7.13368C15.8373 7.00627 15.9222 6.92133 16.1346 6.92133C14.818 4.84033 14.3933 2.41957 14.9454 0.126221Z" fill="#EEEEEE"/>
<path d="M26.8035 10.7863C26.8035 10.6589 26.6761 10.4465 26.6761 10.3616C26.4637 10.3616 26.124 10.489 25.9116 10.489C26.039 10.7013 26.039 10.9137 26.124 11.0411C26.3788 10.8712 26.5911 10.8712 26.8035 10.7863Z" fill="#EEEEEE"/>
<path d="M22.4286 10.7843C20.9847 10.6569 19.6681 10.1048 18.479 9.34033C18.2666 9.34033 18.1392 9.46774 17.9269 9.55268C19.3708 10.6569 20.9847 11.209 22.641 11.2939C22.641 11.209 22.5136 10.9966 22.4286 10.7843Z" fill="#EEEEEE"/>
<path d="M26.4503 9.76503C26.4503 9.63762 26.4503 9.42527 26.3229 9.34033C25.9831 9.34033 25.7708 9.55268 25.431 9.55268C25.5584 9.68009 25.5584 9.89243 25.6434 10.1048C26.0256 10.0198 26.2379 9.89243 26.4503 9.76503Z" fill="#EEEEEE"/>
<path d="M21.1887 9.55579C20.9763 9.42838 20.6366 9.34344 20.4242 9.21603C19.9995 9.08862 19.5324 9.08862 19.1077 9.08862C19.9995 9.64073 21.1037 10.0654 22.0805 10.1928C21.7408 10.0229 21.5284 9.68319 21.1887 9.55579Z" fill="#EEEEEE"/>
<path d="M16.0491 0.337858C15.8368 0.337858 15.6244 0.210449 15.497 0.210449C14.9449 2.41886 15.2847 4.75468 16.6012 6.70827C16.7286 6.58087 16.941 6.49593 17.0259 6.49593C15.7943 4.62727 15.497 2.41886 16.0491 0.337858Z" fill="#EEEEEE"/>
<path d="M26.1648 8.79115C26.1648 8.66374 26.0374 8.45139 26.0374 8.36646C25.6127 8.49386 25.273 8.5788 24.8483 8.70621C24.9757 8.83362 25.0606 9.04597 25.273 9.1309C25.6127 9.0035 25.8251 8.91856 26.1648 8.79115Z" fill="#EEEEEE"/>
<path d="M16.9031 0.550016C16.7757 0.422608 16.5634 0.422607 16.4784 0.422607C16.0537 2.41867 16.351 4.49967 17.5826 6.36833C17.71 6.24092 18.0073 6.24092 18.1347 6.15598C16.9031 4.49967 16.4784 2.41867 16.9031 0.550016Z" fill="#EEEEEE"/>
<path d="M19.4528 6.07161C18.0088 4.62765 17.5841 2.67405 18.0088 0.932806C17.7965 0.805398 17.5841 0.805398 17.4567 0.720459C17.032 2.58911 17.4567 4.54271 18.7733 6.11408H19.4528V6.07161Z" fill="#EEEEEE"/>
<path d="M24.5011 8.23732C24.9258 8.10991 25.393 8.02497 25.8177 7.89756C25.6903 7.68522 25.6053 7.55781 25.6053 7.34546C25.0532 7.55781 24.6285 7.68522 24.0764 7.68522C24.1614 7.89756 24.3737 8.02497 24.5011 8.23732Z" fill="#EEEEEE"/>
<path d="M20.209 5.39266C19.0199 4.28846 18.6801 2.75956 18.8924 1.23066C18.765 1.10325 18.5527 1.10325 18.4678 1.01831C18.0431 2.67462 18.5952 4.54327 19.7843 5.85983C19.9967 5.98724 19.9967 6.07217 20.1241 6.07217C20.6762 6.19958 21.2283 6.28452 21.7804 6.41193C21.1858 6.15711 20.6337 5.81736 20.209 5.39266Z" fill="#EEEEEE"/>
<path d="M25.2735 6.92152C25.2735 6.79411 25.1461 6.58177 25.0612 6.49683C24.0844 6.83658 23.0651 6.83658 22.2157 6.62424C22.6404 6.75164 23.1076 7.04893 23.5323 7.26128C24.0844 7.26128 24.7214 7.13387 25.2735 6.92152Z" fill="#EEEEEE"/>
<path d="M24.8486 6.0718C24.6362 5.94439 24.6362 5.73204 24.4239 5.6471C23.2347 5.98686 21.9182 5.6471 21.0263 4.75524C20.1344 3.86339 19.8372 2.75918 19.9221 1.69744C19.7947 1.57003 19.5399 1.57004 19.3275 1.44263C19.2001 2.75918 19.5399 4.07573 20.5167 5.05253C21.6633 6.15674 23.2772 6.49649 24.8486 6.0718Z" fill="#EEEEEE"/>
<path d="M24.0833 5.18106C23.9559 5.05365 23.871 4.8413 23.7436 4.75636C22.9791 4.75636 22.2147 4.54402 21.6626 3.99191C21.2379 3.56722 20.983 2.88771 20.8981 2.3356C20.7707 2.2082 20.5584 2.12326 20.4734 1.99585C20.346 2.7603 20.6858 3.65216 21.3653 4.2892C22.0873 5.18106 23.0641 5.39341 24.0833 5.18106Z" fill="#EEEEEE"/>
<path d="M23.2716 4.202C22.7195 3.64989 22.0825 3.09779 21.403 2.6731C21.5304 3.01285 21.7427 3.35261 21.9551 3.64989C22.4222 3.94718 22.8469 4.202 23.2716 4.202Z" fill="#EEEEEE"/>
<path d="M49.641 16.477C49.8533 17.6662 50.3205 18.558 51.5096 18.8978C52.8262 19.3225 54.4825 19.2375 55.3744 18.1333C55.5867 17.7086 55.7141 17.1565 55.5018 16.6894C55.3744 15.9249 54.7373 15.7975 53.4208 15.5002C52.3166 15.2879 49.4711 14.9481 48.0271 13.8439C46.838 12.952 46.2859 11.2108 46.838 9.34215C47.6025 7.26114 49.6835 6.36928 51.2548 6.15694C54.1003 5.73224 56.4361 6.83645 57.4129 7.89819C58.3048 8.66264 58.7295 9.97919 58.7295 11.2108H55.5442C55.4168 10.871 55.4168 10.4464 55.2045 10.1066C54.8647 9.21474 54.0153 8.79004 52.9961 8.79004C51.8069 8.66263 50.7027 8.91745 50.1506 9.89425C50.0232 10.234 50.0232 10.871 50.363 11.2108C51 11.9753 52.359 11.9753 53.5482 12.1876C55.5442 12.5274 57.6252 12.8671 58.602 14.4809C59.7062 16.477 59.0267 18.558 58.3897 19.4074C57.965 20.0869 57.4129 20.5965 56.6484 21.0637C55.4593 21.7008 53.2509 21.9556 51.1699 21.6158C49.3012 21.2761 47.9847 20.4267 47.3052 19.1951C46.7531 18.3032 46.3284 17.5387 46.3284 16.4345H49.641V16.477Z" fill="#EEEEEE"/>
<path d="M35.1632 12.3141H40.6417C40.6417 11.125 39.7499 9.681 38.4333 9.34124C37.3291 8.91655 36.14 9.12889 35.1207 9.97828C34.2289 10.7427 33.9316 12.484 33.9316 13.5882C33.9316 15.5842 34.3563 16.9857 35.5879 17.8776C36.3523 18.4297 38.0086 19.1942 39.5375 18.0899C40.302 17.5378 40.6417 16.9008 40.7267 16.3487H44.5914C44.464 17.5378 43.2748 19.4065 42.1706 20.2984C40.0896 21.8697 37.3716 22.2095 35.2481 21.3176C30.6189 19.6613 29.8545 15.287 30.1943 12.6539C30.4066 11.5497 30.7464 10.4454 31.2985 9.46865C32.4027 7.7274 33.9316 6.49579 36.14 6.15603C38.4333 5.81628 40.7691 6.49579 42.298 8.23704C43.1899 9.21383 43.9544 10.8701 44.2941 12.1867C44.5065 13.0786 44.6339 14.0554 44.6339 15.0321H35.1632V12.3141Z" fill="#EEEEEE"/>
<path d="M67.5663 18.8961V21.6566C68.7554 21.4442 69.7747 20.8921 70.6241 20.1277C70.6241 20.34 70.8364 21.1045 71.0488 21.3168H74.6587C74.1066 20.2126 74.234 18.5563 74.234 17.7069V13.0778C74.1066 11.8886 74.1066 10.657 73.8942 9.5528C73.6819 8.36365 72.5777 6.495 69.3924 6.15524C68.8403 6.02783 68.2033 6.02783 67.5238 6.02783V8.87329C68.4157 8.74588 69.265 9.00069 69.8171 9.5528C70.2418 9.97749 70.3692 10.4447 70.2418 11.0817C70.0295 11.9736 69.0527 12.2708 67.4813 12.5257V14.819C67.906 14.819 68.3732 14.6916 68.7979 14.6067C69.7747 14.3943 69.987 14.182 70.4542 13.8422C70.4542 14.182 70.4542 16.6877 70.2418 17.1548C69.987 18.1316 68.8828 18.7687 67.5663 18.8961Z" fill="#EEEEEE"/>
<path d="M67.5723 8.91674V6.07129C66.4681 6.1987 65.3639 6.41105 64.5145 6.7508C62.6459 7.51525 61.6691 9.38391 61.6691 11.2526H65.0666C65.0666 10.2758 65.7461 9.38391 66.5106 9.17156C66.6805 8.91674 67.1476 8.91674 67.5723 8.91674Z" fill="#EEEEEE"/>
<path d="M67.5726 14.8222V12.5288C67.0205 12.5288 66.4684 12.6562 65.8314 12.7412C63.9627 12.8686 61.457 13.8454 60.7775 16.4785C60.5652 17.4553 60.7775 19.3239 62.3064 20.6405C63.4106 21.4049 64.9395 21.8296 66.1711 21.7447C66.5958 21.7447 67.1479 21.7447 67.6151 21.6173V18.8568C67.4027 18.8568 67.063 18.9842 66.7232 18.8568C65.8314 18.8568 65.1943 18.517 64.8546 17.88C64.5148 17.2004 64.7272 16.5634 64.982 16.1387C65.3642 15.2893 66.341 15.077 67.5726 14.8222Z" fill="#EEEEEE"/>
<path d="M67.6575 6.36858V6.49598V6.83574V7.04809V7.26043V7.38784V7.60019V7.81254V7.93995C67.6575 8.15229 67.3178 8.2797 67.4452 8.06735V7.7276V7.38784V7.26043C67.4452 7.13303 67.4452 7.13303 67.5726 7.04809V6.92068V6.79327V6.66586L67.4452 6.53845C67.4452 6.53845 67.4452 6.41105 67.3177 6.41105V6.28364L67.6575 6.07129V6.1987V6.36858H67.7849V6.49598L67.9123 6.62339V6.83574C67.9123 6.83574 67.9123 6.96315 67.7849 6.96315V7.09056V7.3029V7.51525C67.7849 7.7276 67.7849 7.85501 67.6575 7.93995C67.6575 8.06735 67.3178 8.36464 67.4452 8.15229V7.93995V7.7276V7.60019V7.38784V7.1755V6.96315V6.7508C67.3178 6.62339 67.3177 6.62339 67.3177 6.53845L67.6575 6.36858Z" fill="#EEEEEE"/>
<path d="M67.6575 6.92236V7.04977V7.38953V7.72928C67.6575 7.85669 67.6575 7.85669 67.7849 7.94163V8.15398V8.28139V8.36632C67.9123 8.36632 67.9123 8.36632 67.9123 8.49373V8.62114L67.5726 8.83349V8.70608V8.57867V8.45126C67.4452 8.45126 67.4452 8.45126 67.4452 8.32386V8.19645V8.06904C67.4452 7.94163 67.4452 7.85669 67.3177 7.85669V7.51694V7.17718V6.96483L67.6575 6.92236Z" fill="#EEEEEE"/>
<path d="M67.4456 8.45139V8.5788V8.70621L67.7853 8.5788V8.36646L67.4456 8.45139Z" fill="#EEEEEE"/>
<path d="M67.6575 12.6528V12.7802V12.9076V13.12V13.2474V13.4598V13.6721V13.8844V14.0968V14.2242V14.3516V14.479C67.6575 14.6064 67.7849 14.6064 67.7849 14.6064V14.7338H67.9123L67.5726 14.9462V14.7338H67.4452V14.6064V14.479V14.2667V14.1393V13.9269V13.7146V13.5872V13.3748V13.1625L67.3177 13.0351V12.8227V12.6953L67.6575 12.6528Z" fill="#EEEEEE"/>
<path d="M67.6579 19.0261V19.1535V19.2809V19.4933C67.6579 19.6207 67.7853 19.7056 67.7853 19.833V20.0454V20.2577V20.4701V20.6824V20.8948V21.0222V21.1071C67.7853 21.2345 67.9127 21.2345 67.9127 21.3195V21.4469L67.573 21.6592V21.5318V21.4044V21.277C67.573 21.1496 67.4456 21.1496 67.573 21.1496C67.4456 21.0222 67.4456 21.0222 67.4456 20.9372V20.7249V20.5126V20.3002V20.0879V19.8755V19.5358V19.4083V19.196V19.0686L67.6579 19.0261Z" fill="#EEEEEE"/>
<path d="M67.4456 19.1111V19.2385V19.3234V19.4508L67.7853 19.3234V19.2385V19.0261L67.4456 19.1111Z" fill="#EEEEEE"/>
<path d="M67.4456 19.1111V19.2385V19.3234L67.7853 19.2385V19.0261L67.4456 19.1111Z" fill="#EEEEEE"/>
<path d="M67.3586 19.2385L67.6559 19.1111V19.0261L67.3586 19.2385Z" fill="#EEEEEE"/>
<path d="M67.5619 12.6562H67.6893H67.8167H67.9441C68.0715 12.8686 67.6044 12.8686 67.6044 12.8686L67.477 12.7412H67.3496H67.2222L67.4345 12.5288H67.5619H67.7743C67.7743 12.6562 67.7743 12.6562 67.9017 12.6562C67.7743 12.7836 67.6893 12.996 67.5619 12.8686H67.4345H67.3071H67.1797L67.5619 12.6562Z" fill="#EEEEEE"/>
<path d="M67.6575 8.45093H67.7849V8.57834H67.9123L67.5726 8.79068C67.5726 8.79068 67.5726 8.66327 67.4452 8.66327C67.4452 8.53587 67.3177 8.53587 67.3177 8.53587L67.6575 8.45093Z" fill="#EEEEEE"/>
</svg>
