<svg width="68" height="23" viewBox="0 0 68 23" fill="none" xmlns="http://www.w3.org/2000/svg">
<path d="M28.6785 11.9701C28.6785 15.1572 26.191 17.4893 23.1593 17.4893C20.1277 17.4893 17.6401 15.1184 17.6401 11.9701C17.6401 8.74411 20.1277 6.45093 23.1593 6.45093C26.2299 6.41206 28.6785 8.70524 28.6785 11.9701ZM26.2687 11.9701C26.2687 9.98787 24.8306 8.62751 23.1593 8.62751C21.488 8.62751 20.0499 9.98787 20.0499 11.9701C20.0499 13.9524 21.488 15.3127 23.1593 15.3127C24.8306 15.3127 26.2687 13.8746 26.2687 11.9701Z" fill="#EEEEEE"/>
<path d="M40.6095 11.9701C40.6095 15.1572 38.122 17.4893 35.0903 17.4893C32.0587 17.4893 29.5712 15.1184 29.5712 11.9701C29.5712 8.78298 32.0587 6.45093 35.0903 6.45093C38.122 6.41206 40.6095 8.70524 40.6095 11.9701ZM38.1997 11.9701C38.1997 9.98787 36.7617 8.62751 35.0903 8.62751C33.419 8.62751 31.9809 9.98787 31.9809 11.9701C31.9809 13.9524 33.419 15.3127 35.0903 15.3127C36.7617 15.3127 38.1997 13.8746 38.1997 11.9701Z" fill="#EEEEEE"/>
<path d="M52.0436 6.79971V16.6721C52.0436 20.7143 49.6339 22.3856 46.8354 22.3856C44.1535 22.3856 42.56 20.5977 41.9381 19.1596L44.0369 18.3045C44.4256 19.1596 45.3584 20.2479 46.8354 20.2479C48.6233 20.2479 49.7505 19.1207 49.7505 17.0219V16.2057H49.6727C49.1286 16.9053 48.0403 17.5271 46.7577 17.5271C44.0369 17.5271 41.4717 15.1174 41.4717 12.008C41.4717 8.89855 44.0369 6.48877 46.7577 6.48877C48.0791 6.48877 49.1286 7.11065 49.6727 7.73253H49.7505V6.87744H52.0436V6.79971ZM49.9448 11.9691C49.9448 10.0257 48.6233 8.62648 46.952 8.62648C45.3196 8.62648 43.9203 10.0646 43.9203 11.9691C43.9203 13.9125 45.3584 15.3117 46.952 15.3117C48.6622 15.3117 49.9448 13.8736 49.9448 11.9691Z" fill="#EEEEEE"/>
<path d="M55.8503 0.968994H53.4794V17.1379H55.8503V0.968994Z" fill="#EEEEEE"/>
<path d="M65.0646 13.7588L66.9302 15.0025C66.3861 15.9353 64.8702 17.49 62.3438 17.49C59.2344 17.49 56.8635 15.0802 56.8635 11.9708C56.8635 8.66711 59.2345 6.45166 62.0718 6.45166C64.948 6.45166 66.3472 8.74484 66.8136 9.9886L67.0468 10.6105L59.662 13.6422C60.2061 14.7693 61.139 15.3135 62.3438 15.3135C63.5487 15.3135 64.4427 14.6916 65.0646 13.7588ZM59.2733 11.7765L64.1706 9.71653C63.9374 9.01692 63.1212 8.55051 62.1106 8.55051C60.9446 8.55051 59.1956 9.6388 59.2733 11.7765Z" fill="#EEEEEE"/>
<path d="M8.70534 10.5293V8.15837H16.5955C16.6732 8.58591 16.7121 9.09119 16.7121 9.59647C16.7121 11.3455 16.2068 13.5221 14.6521 15.0768C13.1751 16.6315 11.2317 17.4866 8.70534 17.4866C4.00238 17.4866 -0.000976562 13.6387 -0.000976562 8.89685C-0.000976562 4.15501 3.96351 0.307129 8.70534 0.307129C11.3095 0.307129 13.1751 1.35655 14.6132 2.67805L12.9419 4.34935C11.9313 3.3388 10.571 2.67805 8.70534 2.67805C5.285 2.67805 2.56428 5.39877 2.56428 8.89685C2.56428 12.3172 5.285 15.1157 8.70534 15.1157C10.9597 15.1157 12.2423 14.2606 13.0585 13.3666C13.6804 12.7447 14.1079 11.8119 14.3023 10.4904H8.70534V10.5293Z" fill="#EEEEEE"/>
</svg>
