<svg width="83" height="36" viewBox="0 0 83 36" fill="none" xmlns="http://www.w3.org/2000/svg">
<path d="M81.8631 30.9163C81.5704 30.6236 81.1523 30.1637 80.6924 29.6619C80.2325 29.1602 79.6053 28.5748 79.0199 27.9476C78.7272 27.6549 78.3509 27.2786 78.0582 26.9859C77.7655 26.6933 77.3892 26.3169 77.0965 26.0243C77.3056 25.857 77.4729 25.648 77.6401 25.4807C77.8492 25.3135 78.0164 25.1044 78.1837 24.9371C78.5182 24.5608 78.8945 24.1845 79.1871 23.85C79.7307 23.2647 80.107 22.8047 80.107 22.8047C80.107 22.8047 79.6889 23.1392 79.0199 23.7246C78.7272 24.0173 78.3509 24.3518 77.9746 24.7281C77.8074 24.8953 77.5983 25.0626 77.431 25.2716C77.222 25.4389 77.0547 25.6061 76.8457 25.8152C76.5948 25.5225 76.3439 25.2716 76.0094 24.979C75.7167 24.6445 75.3404 24.31 75.0478 24.0173C74.3788 23.4319 73.7934 22.8465 73.2916 22.3866C72.7899 21.8849 72.33 21.4667 72.0373 21.2159C71.7446 20.9232 71.5774 20.7978 71.5774 20.7978C71.5774 20.7978 71.7028 20.965 71.9955 21.2577C72.2464 21.5504 72.6645 22.0103 73.1662 22.512C73.6262 23.0138 74.2115 23.5992 74.8387 24.2263C75.1314 24.519 75.4241 24.8953 75.8004 25.188C76.0512 25.4389 76.2603 25.6898 76.553 25.9406H74.1279L61.8352 8.25415C62.1697 8.54683 62.5042 8.88133 62.7968 9.17402C63.2568 9.63395 63.7167 10.0939 64.1348 10.512C64.9711 11.3482 65.7655 12.1009 66.4763 12.7698C67.1871 13.4807 67.7725 14.0242 68.1488 14.3587C68.5669 14.735 68.8178 14.9859 68.8178 14.9859C68.8178 14.9859 68.6087 14.7768 68.1906 14.3169C67.8143 13.9406 67.2707 13.3134 66.6017 12.6444C65.9745 11.9336 65.1801 11.1392 64.3439 10.3029C63.9258 9.88482 63.4658 9.38307 63.0477 8.96495C62.6296 8.54683 62.1697 8.0869 61.7515 7.66878V7.62697C61.9606 7.45972 62.1278 7.25066 62.3369 7.08341C62.5041 6.87435 62.7132 6.70711 62.8805 6.45623C63.215 6.12174 63.5913 5.70362 63.8421 5.41093C64.3857 4.82556 64.8038 4.36563 64.8038 4.36563C64.8038 4.36563 64.3439 4.70013 63.7167 5.2855C63.424 5.53637 63.0895 5.91268 62.6714 6.24717C62.4623 6.41442 62.2951 6.62348 62.086 6.79073C61.9188 6.99979 61.7097 7.16704 61.5425 7.41791H61.5007C61.1244 7.0416 60.7062 6.62348 60.3299 6.24717C59.9118 5.82905 59.4519 5.36912 59.0338 4.951C58.1557 4.11476 57.3613 3.36214 56.6505 2.65134C55.9397 1.98235 55.3961 1.43879 54.978 1.06248C54.5181 0.644363 54.309 0.435303 54.309 0.435303C54.309 0.435303 54.5181 0.644363 54.8526 1.1043C55.2289 1.4806 55.8142 2.10778 56.4414 2.77678C57.1104 3.48758 57.863 4.2402 58.7411 5.11825C59.1592 5.53637 59.6191 5.9963 60.0372 6.45623C60.4135 6.83254 60.8317 7.25066 61.208 7.62697C61.0825 7.71059 60.9989 7.83603 60.8735 7.91965C60.7062 8.12871 60.4972 8.33777 60.3299 8.54683C59.9954 8.92314 59.6191 9.29945 59.3682 9.59214C58.8247 10.2611 58.4484 10.6792 58.4484 10.6792C58.4484 10.6792 58.8665 10.3029 59.4937 9.71757C59.7864 9.4667 60.1627 9.1322 60.539 8.75589C60.748 8.58865 60.9153 8.37959 61.1244 8.21234C61.1662 8.17053 61.2498 8.0869 61.2916 8.04509V12.9789H53.7654H53.4728C53.64 12.8117 53.8072 12.6444 53.9745 12.4772C54.1836 12.3099 54.3508 12.1009 54.5181 11.9336C54.8944 11.5573 55.2289 11.181 55.5215 10.8465C56.0651 10.2193 56.4414 9.8012 56.4414 9.8012C56.4414 9.8012 56.0233 10.1357 55.3961 10.7211C55.0616 11.0137 54.6853 11.3064 54.309 11.7245C54.1417 11.8918 53.9327 12.059 53.7654 12.2681C53.5564 12.4354 53.3891 12.6444 53.1801 12.8117C52.8874 12.5608 52.5947 12.2681 52.302 11.9336C51.9675 11.6409 51.633 11.2646 51.2985 10.9719C51.0058 10.6792 50.7132 10.3866 50.3787 10.0521C49.7515 9.42489 49.2079 8.92314 48.7062 8.46321C48.2462 8.00328 47.7863 7.62697 47.4936 7.33429C47.2428 7.08341 47.0755 6.95798 47.0755 6.95798C47.0755 6.95798 47.2009 7.12523 47.4518 7.3761C47.7445 7.66878 48.1208 8.12871 48.5807 8.58865C49.0407 9.09039 49.5842 9.67576 50.1696 10.2611C50.4623 10.5538 50.7968 10.8883 51.0895 11.181C51.3821 11.5155 51.7585 11.85 52.0511 12.1845C52.302 12.4354 52.5947 12.6862 52.8874 12.9789H43.4797V8.79771C43.6051 8.88133 43.7305 9.00677 43.856 9.1322C44.525 9.8012 45.1522 10.3866 45.6539 10.8883C46.1975 11.3901 46.6992 11.85 46.9919 12.1009C47.2846 12.3935 47.4936 12.5608 47.4936 12.5608C47.4936 12.5608 47.3264 12.3935 47.0337 12.059C46.741 11.7664 46.3229 11.2646 45.8211 10.7629C45.3194 10.2193 44.6922 9.59214 44.065 8.88133C43.9396 8.75589 43.8142 8.63046 43.6469 8.50502L43.6887 8.46321C43.856 8.29596 44.065 8.0869 44.2323 7.83603C44.4414 7.66878 44.6086 7.45972 44.7758 7.29247C45.1522 6.91617 45.4867 6.53986 45.7793 6.24717C46.3229 5.57818 46.6992 5.16006 46.6992 5.16006C46.6992 5.16006 46.2811 5.53637 45.6539 6.12174C45.3194 6.37261 44.9431 6.70711 44.5668 7.08341C44.3995 7.25066 44.1905 7.45972 44.0232 7.62697C43.8142 7.79422 43.6469 8.00328 43.4379 8.21234C43.3124 8.0869 43.187 7.96147 43.0616 7.83603C42.7271 7.50153 42.3507 7.12523 42.0163 6.79073C41.6818 6.45623 41.3055 6.07993 40.971 5.74543C40.6365 5.41093 40.2602 5.03463 39.9257 4.70013C39.2567 4.03114 38.6295 3.44577 38.0441 2.94402C37.5424 2.48409 37.0406 2.02416 36.7479 1.73148C36.4553 1.43879 36.288 1.27154 36.288 1.27154C36.288 1.27154 36.4553 1.4806 36.7479 1.77329C37.0406 2.06597 37.4587 2.56772 37.9605 3.11127C38.4622 3.61302 39.0894 4.28201 39.7166 4.951C40.0511 5.2855 40.3856 5.66181 40.7201 5.9963C41.0546 6.3308 41.4309 6.70711 41.8072 7.08341C42.1417 7.41791 42.518 7.79422 42.8525 8.12871C42.9779 8.25415 43.1034 8.33777 43.2288 8.46321C43.187 8.46321 43.187 8.50502 43.187 8.50502L32.1486 12.519L21.1939 8.58865C21.1521 8.54683 21.1102 8.50502 21.0684 8.50502L21.1102 8.46321C21.2775 8.29596 21.4866 8.0869 21.6538 7.83603C21.8629 7.66878 22.0301 7.45972 22.1974 7.29247C22.5737 6.91617 22.9082 6.53986 23.2008 6.24717C23.7444 5.57818 24.1207 5.16006 24.1207 5.16006C24.1207 5.16006 23.7026 5.53637 23.0754 6.12174C22.7409 6.37261 22.3646 6.70711 21.9883 7.08341C21.821 7.25066 21.612 7.45972 21.4447 7.62697C21.2357 7.79422 21.0684 8.00328 20.8176 8.21234C20.6921 8.0869 20.5667 7.96147 20.4412 7.83603C20.1068 7.50153 19.7304 7.12523 19.3959 6.79073C19.0615 6.45623 18.6851 6.07993 18.3506 5.74543C18.0162 5.41093 17.6398 5.03463 17.3053 4.70013C16.6364 4.03114 16.0092 3.44577 15.4238 2.94402C14.9221 2.48409 14.4203 2.02416 14.1276 1.73148C13.8349 1.43879 13.6677 1.27154 13.6677 1.27154C13.6677 1.27154 13.8349 1.4806 14.1276 1.77329C14.4203 2.06597 14.8384 2.56772 15.3402 3.11127C15.8419 3.61302 16.4691 4.28201 17.0963 4.951C17.4308 5.2855 17.7653 5.66181 18.0998 5.9963C18.4343 6.3308 18.8106 6.70711 19.1869 7.08341C19.5214 7.41791 19.8977 7.79422 20.2322 8.12871C20.3576 8.25415 20.4831 8.33777 20.6085 8.46321C20.4831 8.58865 20.3576 8.71408 20.274 8.79771C20.0649 9.00677 19.8977 9.17402 19.7304 9.38307C19.3541 9.71757 19.0196 10.1357 18.727 10.4284C18.1834 11.0137 17.8071 11.4737 17.8071 11.4737C17.8071 11.4737 18.2252 11.1392 18.8524 10.5538C19.1869 10.3029 19.5632 9.96844 19.9395 9.59214C20.1068 9.38307 20.3158 9.21583 20.4831 9.04858C20.5249 9.00677 20.5667 8.96495 20.6085 8.92314V12.9371H15.0475V8.33777H7.47952L9.90462 11.0974C9.73737 11.2646 9.57012 11.4319 9.36106 11.5991C9.19381 11.7664 8.98475 11.9336 8.81751 12.1427C8.65026 12.2681 8.48301 12.4354 8.31576 12.6026H8.1067C8.02308 12.519 7.93945 12.4354 7.81402 12.3517C7.47952 12.0172 7.10321 11.6409 6.76872 11.3064C6.43422 10.9301 6.05791 10.5538 5.72342 10.2193C5.38892 9.88482 5.01261 9.55032 4.67812 9.21583C4.00912 8.54683 3.38194 7.96147 2.79657 7.45972C2.29483 6.95798 1.79309 6.53986 1.5004 6.24717C1.16591 6.03811 0.998657 5.82905 0.998657 5.82905C0.998657 5.82905 1.16591 5.9963 1.45859 6.3308C1.79309 6.66529 2.16939 7.12523 2.67114 7.66878C3.17288 8.21234 3.80006 8.83952 4.42724 9.55032C4.76174 9.88482 5.09624 10.2611 5.43073 10.5956C5.76523 10.9301 6.14154 11.3064 6.51784 11.6409C6.85234 11.9754 7.22865 12.3517 7.56315 12.6862C7.64677 12.7698 7.73039 12.8535 7.81402 12.9371V13.1462C7.73039 13.2298 7.64677 13.3134 7.60496 13.397C7.3959 13.5643 7.22865 13.7733 7.0614 13.9406C6.68509 14.3169 6.3506 14.6932 6.05791 15.0277C5.51436 15.6131 5.13805 16.073 5.13805 16.073C5.13805 16.073 5.55617 15.7385 6.18335 15.1531C6.51784 14.8604 6.89415 14.526 7.27046 14.1496C7.43771 13.9824 7.64677 13.8151 7.81402 13.6061V34.1776L15.0475 26.9441V14.9441H20.6503V30.8745L28.051 23.4737V14.6096L32.1486 16.1566L36.5807 14.6096V28.742L43.5215 35.6828V14.9441H47.9536C47.9536 14.9441 45.194 18.1636 45.1103 21.2577C45.0267 24.5608 47.41 26.6514 47.8699 27.0696L45.6121 30.2891H54.7271L56.4832 27.9476H63.7167L64.9711 25.9406H57.6958L61.3334 21.2577L64.9711 25.9406H67.7725L66.5181 27.9476L67.9815 30.2891H77.0965L75.5077 27.9476L76.762 26.4424C76.8039 26.4006 76.8457 26.3588 76.8875 26.3169C77.1802 26.6096 77.5147 26.9023 77.8074 27.2368C78.1418 27.5713 78.5182 27.9058 78.8108 28.1985C79.4798 28.7839 80.0652 29.3692 80.5669 29.871C81.0687 30.3309 81.5286 30.749 81.8213 30.9999C82.114 31.2926 82.2812 31.418 82.2812 31.418C82.2812 31.418 82.114 31.209 81.8631 30.9163ZM9.02657 12.4354C9.23563 12.2681 9.40287 12.059 9.57012 11.8918C9.73737 11.6827 9.90462 11.5155 10.0719 11.3901L11.2844 12.728H8.73388C8.81751 12.6026 8.90113 12.519 9.02657 12.4354ZM48.9152 25.5225C48.1626 24.8117 46.8665 23.1392 47.6191 20.5469C48.3717 17.7873 52.0093 14.4841 53.3473 13.3552C53.4309 13.4807 53.5564 13.5643 53.6818 13.6897L55.4379 16.1148L48.9152 25.5225Z" fill="#EEEEEE"/>
</svg>
