<svg width="56" height="28" viewBox="0 0 56 28" fill="none" xmlns="http://www.w3.org/2000/svg">
<path d="M53.0349 2.48274C51.8517 1.33439 50.251 0.708008 48.5806 0.708008C45.1008 0.708008 42.2473 3.45711 42.1777 6.79779V11.1476C42.1777 11.4956 41.8993 11.8088 41.4817 11.8088C41.2381 11.8088 41.1337 11.7044 40.9945 11.6C40.9249 11.5304 40.7857 11.3564 40.7857 11.1476V6.83259C40.7857 5.16225 40.1593 3.6311 38.9414 2.48274C37.7582 1.33439 36.1923 0.708008 34.4523 0.708008C30.9725 0.708008 28.119 3.45711 28.119 6.83259V14.4535C28.119 14.8015 27.8406 15.1147 27.4926 15.1147C27.249 15.1147 27.1098 15.0103 27.0054 14.9059C26.901 14.8363 26.7966 14.6623 26.7966 14.4535V6.83259C26.7966 5.16225 26.1006 3.6311 24.9175 2.48274C23.7343 1.33439 22.1336 0.708008 20.4284 0.708008C16.9486 0.708008 14.0951 3.45711 14.0255 6.79779V11.1476C14.0255 11.4956 13.7123 11.8088 13.3295 11.8088C13.0859 11.8088 12.9467 11.7044 12.8423 11.6C12.7727 11.5304 12.6335 11.3564 12.6335 11.1476V6.83259C12.6335 5.16225 12.0072 3.6311 10.7892 2.48274C9.60604 1.33439 8.0053 0.708008 6.26536 0.708008C2.82029 0.708008 0.00158691 3.45711 0.00158691 6.83259V11.8436V14.5927H5.67378V11.8436V6.83259C5.67378 6.589 5.77818 6.4498 5.88257 6.3802C5.95217 6.31061 6.12617 6.17141 6.36976 6.17141C6.61335 6.17141 6.75254 6.27581 6.85694 6.3802C6.92654 6.4498 7.06573 6.62379 7.06573 6.83259V11.1476C7.06573 12.818 7.69211 14.3491 8.94486 15.4975C10.128 16.6458 11.7288 17.2722 13.4339 17.2722C15.139 17.2722 16.7398 16.6458 17.9577 15.4975C19.1409 14.3491 19.8021 12.7832 19.8021 11.1476V6.83259C19.8021 6.4846 20.1153 6.17141 20.5328 6.17141C20.7416 6.17141 20.8808 6.27581 21.02 6.3802C21.0896 6.4498 21.2288 6.62379 21.2288 6.83259V14.4535C21.2288 16.0891 21.8552 17.6202 23.0732 18.7686C24.2563 19.9169 25.8571 20.5781 27.597 20.5781C29.2673 20.5781 30.8681 19.9517 32.086 18.8034C33.2692 17.655 33.9652 16.0891 33.9652 14.4535V6.83259C33.9652 6.589 34.0348 6.4498 34.1392 6.3802C34.2435 6.31061 34.4175 6.17141 34.6263 6.17141C34.8699 6.17141 35.0091 6.27581 35.1135 6.3802C35.1831 6.4498 35.3223 6.62379 35.3223 6.83259V11.1476C35.3223 12.818 36.0183 14.3491 37.2014 15.4975C38.3846 16.6458 39.9853 17.2722 41.6557 17.2722C43.3608 17.2722 44.9616 16.6458 46.1795 15.4975C47.3627 14.3491 48.0239 12.7832 48.0239 11.1476V6.83259C48.0239 6.4846 48.337 6.17141 48.7546 6.17141C48.9982 6.17141 49.1374 6.27581 49.2418 6.3802C49.3114 6.4498 49.4506 6.62379 49.4506 6.83259V8.25934V8.95531V11.7044V14.6275C49.4506 16.1239 50.7382 17.3766 52.2693 17.3766C53.8352 17.3766 55.088 16.1239 55.088 14.6275V11.7392V8.99011V8.29413V6.86739C54.914 5.19705 54.218 3.6311 53.0349 2.48274Z" fill="#EEEEEE"/>
<path d="M10.7554 23.2938V27.7481H9.67667L9.74627 24.5814V24.1638L9.71147 24.303C9.64187 24.5466 9.64187 24.5814 9.60707 24.7554L8.7023 27.7481H7.72794L6.89277 24.8946L6.68398 24.129C6.68398 24.477 6.68398 24.5466 6.71878 24.9642L6.75357 27.7481H5.64001V23.2938H7.31035L8.04113 25.7993L8.21512 26.4953C8.28472 26.1821 8.28472 26.1821 8.31952 25.9385L9.05029 23.259H10.7554V23.2938Z" fill="#EEEEEE"/>
<path d="M13.541 26.1823C13.541 26.5303 13.541 26.8087 13.1931 27.0175C13.1235 27.0523 12.9843 27.0871 12.8799 27.0871C12.6363 27.0871 12.4971 26.9479 12.4971 26.7739C12.4971 26.4955 12.7755 26.4259 12.9495 26.3563L13.541 26.1823ZM12.6363 25.382C12.6711 25.2776 12.7407 25.034 13.1931 25.034C13.541 25.034 13.541 25.2776 13.541 25.4167V25.6255C13.1583 25.6951 12.4971 25.7647 12.2187 25.9039C11.9403 26.0083 11.4879 26.3215 11.4879 26.8783C11.4879 27.3307 11.8011 27.8875 12.6015 27.8875C13.0887 27.8875 13.367 27.6439 13.6454 27.5047V27.7831H14.6198C14.5502 27.7135 14.5502 27.6439 14.5502 27.2959V25.4167C14.5502 24.5816 13.541 24.4424 13.1235 24.4424C12.7407 24.4424 12.3231 24.4772 12.0099 24.7556C11.7315 24.9992 11.6967 25.2428 11.6619 25.4515H12.6363V25.382Z" fill="#EEEEEE"/>
<path d="M15.6252 26.6688C15.9036 26.9124 16.2167 27.1212 16.6343 27.1212C16.8779 27.1212 17.2259 27.0516 17.2259 26.7732C17.2259 26.6688 17.1563 26.634 17.1215 26.5644C16.9475 26.4948 16.7387 26.4948 16.5299 26.46C16.3559 26.4252 16.2515 26.4252 16.0775 26.3556C15.8688 26.3208 15.6252 26.2512 15.5208 26.0772C15.3468 25.938 15.2424 25.6944 15.2424 25.4508C15.2424 24.8941 15.7296 24.3721 16.6691 24.3721C17.4695 24.3721 17.9567 24.6853 18.2003 24.8245L17.5739 25.416C17.2607 25.1376 16.9475 25.068 16.7039 25.068C16.3559 25.068 16.2167 25.2072 16.2167 25.3464C16.2167 25.4856 16.4603 25.5552 16.7735 25.6248C17.4347 25.7292 18.2351 25.938 18.2351 26.7036C18.2351 27.4692 17.4347 27.8519 16.6343 27.8519C15.66 27.8519 15.2076 27.3996 14.964 27.1908L15.6252 26.6688Z" fill="#EEEEEE"/>
<path d="M19.0093 26.6688C19.2877 26.9124 19.6009 27.1212 20.0185 27.1212C20.2621 27.1212 20.6101 27.0516 20.6101 26.7732C20.6101 26.6688 20.5405 26.634 20.5057 26.5644C20.3317 26.4948 20.1229 26.4948 19.9141 26.46C19.7401 26.4252 19.6357 26.4252 19.4617 26.3556C19.2529 26.3208 19.0093 26.2512 18.9049 26.0772C18.7309 25.938 18.6265 25.6944 18.6265 25.4508C18.6265 24.8941 19.1137 24.3721 20.0533 24.3721C20.8537 24.3721 21.3408 24.6853 21.5844 24.8245L20.9581 25.416C20.6449 25.1376 20.3317 25.068 20.0881 25.068C19.7053 25.068 19.6009 25.2072 19.6009 25.3464C19.6009 25.4856 19.8445 25.5552 20.1577 25.6248C20.8537 25.7292 21.6192 25.938 21.6192 26.7036C21.6192 27.4692 20.7841 27.8519 19.9837 27.8519C19.0789 27.8519 18.5917 27.3996 18.3481 27.1908L19.0093 26.6688Z" fill="#EEEEEE"/>
<path d="M22.2383 24.059H23.2474V23.2935H22.2383V24.059ZM22.2383 27.7477H23.2474V24.4766H22.2383V27.7477Z" fill="#EEEEEE"/>
<path d="M23.6644 24.4771H24.7084C25.1608 25.9386 25.2304 26.2518 25.3 26.8782C25.474 26.1474 25.474 26.0778 25.648 25.3122L25.8915 24.5118H26.9007L25.8219 27.7829H24.778L23.6644 24.4771Z" fill="#EEEEEE"/>
<path d="M30.5569 26.9472C30.4525 27.0864 30.3133 27.2604 30.1741 27.3996C29.8957 27.6779 29.4085 27.8867 28.8865 27.8867C27.8426 27.8867 27.1814 27.2256 27.1814 26.1816C27.1814 25.3812 27.5642 24.3721 28.8865 24.3721C29.0953 24.3721 29.6869 24.3721 30.1393 24.8245C30.5917 25.2768 30.6265 25.9032 30.6265 26.286H28.1906C28.1906 26.7036 28.4342 27.0864 28.9909 27.0864C29.5129 27.0864 29.7217 26.7384 29.8261 26.4948L30.5569 26.9472ZM29.5477 25.6944C29.5477 25.59 29.5129 25.3812 29.3389 25.242C29.2345 25.1028 29.0605 25.068 28.8865 25.068C28.6429 25.068 28.5037 25.1376 28.3994 25.2768C28.2254 25.416 28.1906 25.59 28.1558 25.6944H29.5477Z" fill="#EEEEEE"/>
<path d="M36.2646 23.2938V27.7481H35.151L35.2206 24.5814V24.1638L35.1858 24.303C35.151 24.5466 35.151 24.5814 35.0814 24.7554L34.2463 27.7133H33.2371L32.4019 24.8598L32.1931 24.0942C32.2279 24.4422 32.2279 24.5118 32.2279 24.9294L32.2627 27.7133H31.184V23.2938H32.8543L33.5503 25.7993L33.7243 26.4953C33.7939 26.1821 33.7939 26.1821 33.8287 25.9385L34.5942 23.259H36.2646V23.2938Z" fill="#EEEEEE"/>
<path d="M39.1823 24.4772H40.1914V27.7483H39.1823V27.4351C39.0779 27.5395 39.0083 27.6439 38.8343 27.7135C38.6255 27.8179 38.4515 27.8527 38.2079 27.8527C37.9991 27.8527 37.6163 27.8179 37.3727 27.5047C37.164 27.2611 37.1292 27.0871 37.1292 26.5303V24.4424H38.1731V26.4955C38.1731 26.6347 38.1731 26.8087 38.2427 26.8783C38.2775 26.9479 38.4515 27.0871 38.6255 27.0871C38.6603 27.0871 38.7995 27.0871 38.9387 26.9827C39.1823 26.8783 39.1823 26.7043 39.1823 26.5303V24.4772Z" fill="#EEEEEE"/>
<path d="M41.2408 26.6688C41.5192 26.9124 41.8323 27.1212 42.2499 27.1212C42.4935 27.1212 42.8415 27.0516 42.8415 26.7732C42.8415 26.6688 42.7719 26.634 42.7371 26.5644C42.5631 26.4948 42.3543 26.4948 42.1455 26.46C41.9715 26.4252 41.8323 26.4252 41.6932 26.3556C41.4496 26.3208 41.2408 26.2512 41.1016 26.0772C40.9972 25.938 40.858 25.6944 40.858 25.4508C40.858 24.8941 41.3452 24.3721 42.2847 24.3721C43.0851 24.3721 43.5723 24.6853 43.8159 24.8245L43.1547 25.416C42.8415 25.1376 42.5631 25.068 42.3195 25.068C41.9367 25.068 41.8323 25.2072 41.8323 25.3464C41.8323 25.4856 42.0411 25.5552 42.3891 25.6248C43.0851 25.7292 43.8507 25.938 43.8507 26.7036C43.8507 27.4692 43.0155 27.8519 42.2151 27.8519C41.3104 27.8519 40.7884 27.3996 40.5796 27.1908L41.2408 26.6688Z" fill="#EEEEEE"/>
<path d="M44.48 23.2935H45.4543V24.059H44.48V23.2935ZM44.48 24.4766H45.4543V27.7477H44.48V24.4766Z" fill="#EEEEEE"/>
<path d="M49.3122 26.9818C49.2078 27.1906 49.0686 27.3994 48.7902 27.6082C48.5118 27.7474 48.1986 27.8866 47.7811 27.8866C47.1547 27.8866 46.1107 27.5038 46.1107 26.1815C46.1107 25.2071 46.7023 24.4067 47.8159 24.4067C48.1638 24.4067 48.8598 24.5111 49.2426 25.1723L48.5118 25.5899C48.4422 25.4855 48.4074 25.3463 48.2334 25.2419C48.129 25.1723 47.9898 25.1375 47.8507 25.1375C47.3287 25.1375 47.1199 25.7639 47.1199 26.1467C47.1199 26.5643 47.3635 27.121 47.8855 27.121C47.9203 27.121 48.1638 27.121 48.4074 26.8774C48.477 26.8079 48.5118 26.7383 48.5118 26.6339L49.3122 26.9818Z" fill="#EEEEEE"/>
</svg>
