<svg width="34" height="28" viewBox="0 0 34 28" fill="none" xmlns="http://www.w3.org/2000/svg">
<path d="M0.0012207 17.95L0.418588 18.0236C1.10601 17.6799 1.69523 17.3362 2.28445 17.0907C2.28445 16.9188 2.2108 16.8452 2.2108 16.6733C1.44972 17.1153 0.688644 17.5326 0.0012207 17.95Z" fill="#EEEEEE"/>
<path d="M11.8986 14.1443L11.825 14.3898H13.1752L12.9297 13.8743C12.586 13.9725 12.2423 14.0707 11.8986 14.1443Z" fill="#EEEEEE"/>
<path d="M9.64209 5.45268C8.2918 6.45927 8.80736 9.67543 10.8205 13.1371C11.066 13.0634 11.3361 12.9652 11.5816 12.8916C11.7535 12.376 11.8271 12.0569 11.8271 11.9587C11.9008 11.6149 11.4834 11.2712 11.4098 11.1976H14.0367C14.0367 11.1976 14.2085 11.5413 14.3804 12.0323C15.657 11.6149 17.1792 11.0994 18.6768 10.5102C15.2888 6.38561 11.3115 4.10239 9.64209 5.45268ZM10.4032 6.70478C10.3295 6.70478 10.3295 6.70478 10.3295 6.63112C10.3295 6.55747 10.3295 6.45927 10.4032 6.45927C10.4768 6.45927 10.575 6.53292 10.575 6.63112C10.5505 6.70478 10.4768 6.70478 10.4032 6.70478ZM10.8942 7.294C10.8205 7.294 10.8205 7.294 10.8205 7.22034C10.8205 7.14669 10.8205 7.04849 10.8942 7.04849C10.9678 7.04849 10.9678 7.12214 10.9678 7.22034C10.9924 7.294 10.9924 7.294 10.8942 7.294ZM11.999 6.87663C11.999 6.95028 11.9253 6.95028 11.8271 7.04849V7.3922V7.04849C11.7535 6.97484 11.6553 6.97484 11.6553 6.87663H11.2379L11.6553 6.80298L11.7289 6.72933L11.8026 6.31196V6.72933C11.8762 6.72933 11.9744 6.72933 11.9744 6.80298L12.3181 6.87663H11.999Z" fill="#EEEEEE"/>
<path d="M15.8781 16.1823L15.8045 16.2559H13.1775C13.3494 16.0841 13.5949 15.8386 13.5212 15.6667C13.5212 15.4948 13.4476 15.2493 13.3494 15.0775H12.0727C12.2446 15.323 12.4901 15.5931 12.662 15.8386C13.0057 16.1823 13.423 16.6733 13.6685 17.1152C13.7422 17.1889 13.914 17.3607 14.0123 17.4589C13.9386 17.5326 13.7668 17.6308 13.6685 17.7044C13.5949 17.5326 13.4967 17.4589 13.4967 17.3607C13.2512 17.1889 12.9075 16.7715 12.5638 16.2559C12.22 15.9122 11.9745 15.4948 11.6308 15.0775C11.6308 15.0775 11.5572 15.4948 11.5572 15.6667C11.4835 15.9122 11.6308 16.0841 11.8027 16.2559H10.2069C10.3787 16.0841 10.7224 15.8386 10.7961 15.6667C10.7961 15.593 10.968 14.9793 11.1398 14.3164C10.3051 14.5619 9.544 14.7338 8.78293 14.9056V15.5931C8.78293 15.8386 9.12665 16.1086 9.2985 16.2805H7.11347L6.69611 15.5194C6.62245 15.5194 6.52425 15.5931 6.4506 15.5931C6.10688 15.6667 5.68952 15.8386 5.34581 15.9368C5.41946 16.0104 5.51767 16.1823 5.68953 16.2805H4.41288C3.72546 16.4523 3.06259 16.796 2.30151 17.1152C2.98894 19.6439 4.33923 21.9272 6.18054 23.6212C7.77635 22.1972 9.71586 20.405 10.5751 19.8158C11.4099 19.2266 13.7668 17.6062 15.8781 16.1823ZM5.49312 20.2332C5.49312 20.2332 5.41946 20.1595 5.41946 20.0613L5.49312 19.9877C5.56678 19.9877 5.66497 20.0613 5.66497 20.0613C5.66497 20.135 5.56678 20.2332 5.49312 20.2332ZM6.84342 20.8224C6.76977 20.8224 6.67156 20.7487 6.67156 20.6505C6.67156 20.6505 6.74522 20.5769 6.84342 20.5769C6.91707 20.5769 6.91707 20.6505 6.91707 20.6505C6.91707 20.7242 6.91707 20.8224 6.84342 20.8224ZM7.01526 20.0613C6.94161 20.0613 6.84342 19.9876 6.84342 19.8894C6.84342 19.8158 6.91706 19.8158 7.01526 19.8158C7.08892 19.8158 7.18712 19.8158 7.18712 19.8894C7.18712 19.9631 7.08892 20.0613 7.01526 20.0613ZM7.43263 21.3379C7.35898 21.3379 7.26077 21.2643 7.26077 21.1661C7.26077 21.0924 7.33443 20.9942 7.43263 20.9942C7.50628 20.9942 7.60449 21.0679 7.60449 21.1661C7.60449 21.2397 7.53083 21.3379 7.43263 21.3379ZM9.20029 20.7242C9.12664 20.7242 9.02843 20.6505 9.02843 20.5523C9.02843 20.5523 9.10209 20.4787 9.20029 20.4787L9.27394 20.5523C9.29849 20.6505 9.20029 20.7242 9.20029 20.7242ZM10.5506 16.5014C10.6242 16.5014 10.7224 16.5751 10.7224 16.5751C10.7224 16.6487 10.6488 16.7469 10.5506 16.7469C10.5506 16.7469 10.4769 16.6733 10.4769 16.5751L10.5506 16.5014ZM10.4769 19.2266C10.4769 19.1529 10.5506 19.0547 10.6488 19.0547C10.7225 19.0547 10.8206 19.1284 10.8206 19.2266C10.8206 19.3002 10.747 19.3984 10.6488 19.3984C10.5506 19.3739 10.4769 19.3002 10.4769 19.2266Z" fill="#EEEEEE"/>
<path d="M4.48888 15.5932V11.8615C4.48888 11.616 4.14518 11.346 3.89967 11.1741H6.1829L7.95056 14.1202H8.1224V11.837C8.1224 11.5915 7.7787 11.1495 7.60684 11.1495H9.20265C9.12899 11.1495 8.78528 11.4933 8.78528 11.837V13.8747C9.3745 13.6292 9.96372 13.4573 10.5529 13.1873C8.51522 9.62739 7.926 6.33758 9.3745 5.15914C11.2404 3.63699 15.5368 6.09207 19.0966 10.5603C19.0966 10.4867 19.023 10.3885 18.9248 10.3148C21.7236 9.21003 24.6697 7.95794 26.5355 6.85315C26.7074 6.7795 26.781 6.68129 26.9529 6.60764C24.596 2.75316 20.2751 0.126221 15.4631 0.126221C7.95055 0.126221 1.86194 6.21483 1.86194 13.7274C1.86194 14.734 2.0338 15.7651 2.20566 16.6735C2.96673 16.2561 3.72781 15.9124 4.48888 15.5932ZM18.2619 5.87112C18.1883 5.87112 18.0901 5.79746 18.0901 5.69926C18.0901 5.62561 18.1637 5.62561 18.2619 5.62561C18.3356 5.62561 18.4338 5.62561 18.4338 5.69926C18.4092 5.79746 18.3356 5.87112 18.2619 5.87112ZM17.9918 2.65496C18.0655 2.5813 18.0655 2.4831 18.1637 2.4831V2.06574L18.2374 2.4831C18.311 2.4831 18.311 2.55675 18.311 2.55675L18.7284 2.63041H18.311C18.311 2.70406 18.311 2.80226 18.2374 2.80226V3.14597L18.1637 2.82681C18.09 2.82681 18.0901 2.75316 18.0901 2.65496H17.6727H17.9918ZM16.2242 4.69268C16.1505 4.69268 16.1505 4.61902 16.1505 4.61902C16.1505 4.54537 16.1505 4.44717 16.2242 4.44717C16.2978 4.44717 16.2978 4.52082 16.2978 4.61902C16.2978 4.59447 16.2978 4.69268 16.2242 4.69268ZM16.2242 2.82681C16.2978 2.82681 16.396 2.90047 16.396 2.99867C16.396 3.07232 16.3224 3.07232 16.2242 3.07232C16.1505 3.07232 16.0523 3.07232 16.0523 2.99867C16.0523 2.92502 16.1505 2.82681 16.2242 2.82681ZM15.4631 1.1328C15.5368 1.1328 15.5368 1.20646 15.5368 1.30466C15.5368 1.30466 15.5368 1.37831 15.4631 1.37831C15.3895 1.37831 15.3895 1.30466 15.3895 1.30466C15.3895 1.23101 15.3895 1.1328 15.4631 1.1328ZM15.0457 3.8334C15.1194 3.8334 15.1194 3.8334 15.1194 3.90705C15.1194 3.9807 15.1194 3.9807 15.0457 3.9807C14.9721 3.9807 14.9721 3.9807 14.9721 3.90705C14.9475 3.8334 14.9475 3.8334 15.0457 3.8334ZM14.6284 2.5813C14.702 2.5813 14.8002 2.65496 14.8002 2.75316C14.8002 2.82681 14.7266 2.92502 14.6284 2.92502C14.5547 2.92502 14.4565 2.85136 14.4565 2.75316C14.4565 2.65496 14.5302 2.5813 14.6284 2.5813ZM13.5236 4.27531C13.5972 4.27531 13.5973 4.27531 13.5973 4.34896C13.5973 4.42262 13.5972 4.42262 13.5236 4.42262C13.4499 4.42262 13.4499 4.42262 13.4499 4.34896C13.4254 4.27531 13.4254 4.27531 13.5236 4.27531ZM13.1799 4.00525C13.2535 4.00525 13.2535 4.00525 13.2535 4.07891C13.2535 4.15256 13.2535 4.25076 13.1799 4.25076C13.1062 4.25076 13.1062 4.17711 13.1062 4.07891C13.1062 4.00525 13.1062 4.00525 13.1799 4.00525ZM13.1062 4.76633C13.1062 4.83998 13.1062 4.93818 13.0326 4.93818C12.9589 4.93818 12.9589 4.86453 12.9589 4.76633C12.9589 4.76633 12.9589 4.69268 13.0326 4.69268C13.1062 4.69268 13.1062 4.76633 13.1062 4.76633ZM12.8362 3.75974C12.9098 3.75974 13.008 3.8334 13.008 3.9316C13.008 3.9316 12.9344 4.00525 12.8362 4.00525L12.7625 3.9316C12.7625 3.8334 12.8362 3.75974 12.8362 3.75974Z" fill="#EEEEEE"/>
<path d="M18.5093 14.4886C18.4356 14.415 18.3374 14.415 18.3374 14.415C17.8219 14.2431 16.8889 13.8994 16.8889 12.8928H16.7171C16.2015 13.0647 15.5386 13.2365 14.8512 13.4084C15.2686 14.5132 15.6859 15.5934 15.6859 15.7653C15.7596 15.9371 15.8578 16.0108 15.9314 16.109C16.938 15.4216 17.9692 14.7587 18.632 14.3413C18.6811 14.3904 18.5829 14.3904 18.5093 14.4886ZM16.9871 15.4952V14.906C16.9871 14.9796 17.159 15.0778 17.3308 15.2497C17.2326 15.3234 17.0608 15.4216 16.9871 15.4952Z" fill="#EEEEEE"/>
<path d="M24.3264 11.1998H24.4001H25.5785C25.5785 11.1998 27.1007 15.4962 27.2725 15.7663C27.3462 16.0118 27.518 16.1836 27.6899 16.2818H24.6456C24.8911 16.11 25.0629 15.8645 25.0629 15.6926C24.9893 15.5208 24.9893 15.2753 24.8911 15.1034H23.1971C23.1971 15.1034 23.1234 15.5208 23.0252 15.6926C23.0252 15.9381 23.1971 16.11 23.2707 16.2818H22.3378C23.1725 18.6387 23.1725 20.5046 22.2642 21.3393C21.5031 21.8549 20.0791 21.683 18.6306 21.0938C18.557 21.0201 18.557 20.9219 18.557 20.9219C20.3246 21.683 21.6013 21.5112 22.0187 21.1675C23.0252 20.2345 23.0252 18.4669 22.1905 16.2573H21.6749C21.7486 16.1836 21.9205 16.0854 22.0187 16.0118C21.7731 15.2507 21.3312 14.416 20.8402 13.5567C20.7666 13.6303 20.5947 13.7285 20.4965 13.8022C20.5702 13.8022 20.6684 13.7285 20.742 13.6303C21.0857 13.9741 21.3312 14.3178 21.3312 14.8088C21.3312 15.6435 20.0546 16.3309 19.3917 16.4046C17.9678 16.4782 17.6241 16.1591 17.5259 16.1591C17.354 16.1591 17.0103 16.4046 16.9366 16.6746V16.1591C16.2492 16.5764 15.3408 17.1657 14.4079 17.8531C14.9971 18.4423 15.5863 18.786 15.8318 19.0315C16.1756 19.3752 16.0037 19.8663 15.3163 19.6207C14.8989 19.3752 14.3097 18.6878 13.966 18.0986C12.6157 19.0315 11.2654 19.9645 10.3324 20.7255C9.22766 21.5603 8.29474 22.2477 6.35522 23.8435C8.81031 25.9549 11.9283 27.3052 15.3899 27.3052C22.8288 27.3052 28.9174 21.2166 28.9174 13.704C28.9174 11.8381 28.5737 9.99682 27.8126 8.37646C27.4689 8.72018 27.1252 8.96569 26.8061 9.21119C26.2659 9.75131 25.4312 10.4387 24.3264 11.1998ZM22.4851 18.0249C22.5588 18.0249 22.657 18.0986 22.657 18.1968C22.657 18.2705 22.5833 18.3687 22.4851 18.3687C22.4115 18.3687 22.3133 18.295 22.3133 18.1968C22.3133 18.1231 22.3869 18.0249 22.4851 18.0249ZM22.4851 19.0561C22.5588 19.0561 22.657 19.0561 22.657 19.1297C22.657 19.2034 22.5833 19.3016 22.4851 19.3016C22.4115 19.3016 22.3133 19.2279 22.3133 19.1297C22.3133 19.0561 22.3869 19.0561 22.4851 19.0561ZM21.454 18.786C21.454 18.786 21.5276 18.8597 21.5276 18.9579L21.454 19.0315C21.3803 19.0315 21.2821 18.9579 21.2821 18.9579C21.2821 18.8842 21.3803 18.786 21.454 18.786ZM21.3803 20.4064C21.454 20.4064 21.5522 20.4064 21.5522 20.48C21.5522 20.5537 21.4785 20.5537 21.3803 20.5537C21.3803 20.5537 21.3067 20.5537 21.3067 20.48C21.2821 20.4064 21.3803 20.4064 21.3803 20.4064ZM10.136 22.1004C10.2097 22.1004 10.3079 22.174 10.3079 22.174C10.3079 22.2477 10.2342 22.3459 10.136 22.3459C10.136 22.3459 10.0624 22.2722 10.0624 22.174L10.136 22.1004ZM10.7253 23.868C10.7253 23.868 10.6516 23.9417 10.5534 23.9417V24.3591L10.4798 23.9417L10.4061 23.868L9.98874 23.7944H10.4061C10.4061 23.7207 10.4798 23.7207 10.4798 23.6225L10.5534 23.2788V23.6225C10.6271 23.6225 10.7253 23.6962 10.7253 23.7944H11.069L10.7253 23.868ZM11.4127 21.1675C11.4127 21.0938 11.4863 20.9956 11.5845 20.9956C11.6582 20.9956 11.6582 21.0692 11.6582 21.1675C11.6582 21.2411 11.6582 21.3393 11.5845 21.3393C11.4863 21.3393 11.4127 21.2411 11.4127 21.1675ZM11.7564 22.5914C11.6828 22.5914 11.5845 22.5914 11.5845 22.5177C11.5845 22.4441 11.6582 22.3459 11.7564 22.3459C11.7564 22.3459 11.8301 22.4195 11.8301 22.5177C11.8301 22.5914 11.7564 22.5914 11.7564 22.5914ZM14.7762 22.2477C14.7025 22.2477 14.6043 22.2477 14.6043 22.174C14.6043 22.1004 14.678 22.0022 14.7762 22.0022C14.7762 22.0022 14.8498 22.0758 14.8498 22.174C14.8744 22.2477 14.7762 22.2477 14.7762 22.2477ZM17.4031 21.3393C17.4031 21.3393 17.3294 21.2657 17.3294 21.1675L17.4031 21.0938C17.4768 21.0938 17.5749 21.1675 17.5749 21.1675C17.5749 21.2411 17.5013 21.3393 17.4031 21.3393ZM21.9695 23.598C21.8959 23.598 21.7977 23.5243 21.7977 23.5243C21.7977 23.4507 21.8713 23.3525 21.9695 23.3525C22.0432 23.3525 22.0432 23.4261 22.0432 23.5243C22.0432 23.5243 22.0432 23.598 21.9695 23.598ZM24.4246 17.9513C24.4983 17.9513 24.5965 18.0249 24.5965 18.1231C24.5965 18.1968 24.5228 18.295 24.4246 18.295C24.351 18.295 24.351 18.2214 24.351 18.1231C24.3264 18.0249 24.3264 17.9513 24.4246 17.9513ZM24.5965 20.3082C24.5965 20.3818 24.5228 20.3818 24.5228 20.3818C24.4492 20.3818 24.351 20.3818 24.351 20.3082C24.351 20.2345 24.4246 20.2345 24.5228 20.2345C24.4983 20.2345 24.5965 20.2345 24.5965 20.3082ZM24.0809 17.4357C24.0809 17.3621 24.1546 17.2639 24.2528 17.2639C24.3264 17.2639 24.3264 17.3375 24.3264 17.4357C24.3264 17.4357 24.3264 17.5094 24.2528 17.5094C24.1546 17.5339 24.0809 17.4357 24.0809 17.4357ZM24.9156 20.9956C24.9156 21.0692 24.842 21.0692 24.7438 21.1675V21.4866V21.1429C24.6701 21.0692 24.5719 21.0692 24.5719 20.971H24.2282L24.5719 20.8974C24.5719 20.8974 24.6456 20.8237 24.7438 20.8237V20.4064V20.8237C24.8174 20.8237 24.9156 20.8237 24.9156 20.8974L25.2594 20.971H24.9156V20.9956ZM25.5049 21.0692C25.4312 21.0692 25.333 21.0692 25.333 20.9956C25.333 20.9219 25.4067 20.9219 25.5049 20.9219C25.6031 20.9219 25.5785 20.9219 25.5785 20.9956C25.6031 21.0692 25.6031 21.0692 25.5049 21.0692ZM25.6767 19.3016C25.6031 19.3016 25.5049 19.2279 25.5049 19.2279C25.5049 19.1543 25.5785 19.0561 25.6767 19.0561C25.7749 19.0561 25.7504 19.1297 25.7504 19.2279C25.7749 19.2279 25.7749 19.3016 25.6767 19.3016ZM26.0204 18.1231L25.9468 18.5405V18.1231C25.8731 18.1231 25.7749 18.1231 25.7749 18.0495H25.4312L25.7749 17.9758C25.7749 17.9022 25.8486 17.9022 25.9468 17.804V17.4603L26.0204 17.804C26.0204 17.8776 26.0941 17.8776 26.0941 17.9758H26.5115L26.0941 18.0495C26.1186 18.1231 26.0204 18.1231 26.0204 18.1231ZM26.3642 19.0561C26.2905 19.0561 26.2905 19.0561 26.2905 18.9824C26.2905 18.9088 26.2905 18.8106 26.3642 18.8106C26.4378 18.8106 26.536 18.8842 26.536 18.9824C26.536 19.0561 26.4378 19.0561 26.3642 19.0561Z" fill="#EEEEEE"/>
<path d="M5.1488 15.3241C5.49252 15.1522 5.90988 14.9803 6.25359 14.8085L5.1488 12.9426V15.3241Z" fill="#EEEEEE"/>
<path d="M19.0922 11.0275C19.0922 10.9539 19.0185 10.9539 18.9203 10.8557C18.8467 10.782 18.7485 10.6102 18.6748 10.512C18.7485 10.5856 18.8467 10.7575 18.9203 10.8557C18.994 10.9293 19.0922 10.9293 19.0922 11.0275Z" fill="#EEEEEE"/>
<path d="M18.4141 12.3785C18.5859 12.7959 19.2488 12.7959 19.838 13.1396C20.0099 13.2133 20.0835 13.3115 20.2554 13.3115C20.329 13.3115 20.4272 13.2378 20.5991 13.1396C20.3536 12.7223 20.0099 12.3049 19.7644 11.9612C19.2733 12.133 18.856 12.2067 18.4141 12.3785Z" fill="#EEEEEE"/>
<path d="M19.684 13.728H19.6104H19.684C19.7577 13.6544 19.8559 13.6544 19.9295 13.5562C19.8559 13.6298 19.7577 13.6298 19.684 13.728Z" fill="#EEEEEE"/>
<path d="M20.7925 12.3762C20.7188 12.3025 20.4488 12.1307 20.2032 12.0325C20.3751 12.3762 20.6206 12.7199 20.8907 13.0391C20.817 13.0391 20.817 13.0391 20.817 12.9654C21.5044 12.548 22.3392 11.9588 23.1739 11.3696C23.1003 11.2959 23.0021 11.1977 22.9284 11.1977H23.444C24.7943 10.093 26.0709 9.08637 26.6601 8.5708C24.9661 9.74924 22.8547 10.7558 20.8416 11.5169V12.3762H20.7925Z" fill="#EEEEEE"/>
<path d="M21.0386 13.4824C21.0386 13.4088 21.0386 13.4088 20.965 13.3106C21.4805 14.1453 21.8979 15.0046 22.2416 15.8393C22.3152 15.7656 22.3153 15.6674 22.4135 15.6674C22.4135 15.4956 23.3464 12.2058 23.3464 11.9603C23.42 11.9603 23.42 11.8866 23.42 11.8866C23.5919 11.7147 23.8374 11.5429 24.1075 11.4692C23.2482 12.0339 22.2171 12.7213 21.0386 13.4824Z" fill="#EEEEEE"/>
<path d="M19.1675 14.7353C19.1675 14.6616 19.2412 14.6616 19.2412 14.6616C18.652 15.0053 18.0627 15.4227 17.4735 15.8401C17.5472 15.7664 17.719 15.6682 17.8909 15.5946C17.9645 15.5946 18.1364 15.5946 18.2346 15.6682C18.922 15.7419 19.6585 15.4963 19.5849 15.1526C19.6094 14.9808 19.4376 14.8335 19.1675 14.7353Z" fill="#EEEEEE"/>
<path d="M23.3982 14.3904H24.6748L23.9138 12.5491L23.3982 14.3904Z" fill="#EEEEEE"/>
<path d="M17.5025 15.8398C17.4288 15.9135 17.2569 15.9135 17.0851 16.0854C17.2324 15.9135 17.4042 15.9135 17.5025 15.8398Z" fill="#EEEEEE"/>
<path d="M3.97314 25.6345V26.0519C4.97973 25.2171 5.7408 24.4561 6.42823 23.8668C6.35458 23.7932 6.25637 23.695 6.18272 23.6213C5.24979 24.4561 4.39051 25.2171 3.97314 25.6345Z" fill="#EEEEEE"/>
<path d="M33.2165 1.3042C31.1051 4.00479 28.6501 5.6006 26.9561 6.63173C27.3734 7.1473 27.6435 7.73652 27.889 8.39939C29.6566 6.87724 32.1117 4.42216 33.2165 1.3042Z" fill="#EEEEEE"/>
</svg>
