<svg width="86" height="18" viewBox="0 0 86 18" fill="none" xmlns="http://www.w3.org/2000/svg">
<path d="M42.4296 13.2335L45.6796 0.233398H48.9748L44.9574 17.2058H41.5719C41.5719 17.2058 38.4122 5.78553 38.1413 4.79246C37.5545 6.82373 34.7559 17.2058 34.7559 17.2058H31.5961L27.3982 0.233398H30.6934L33.176 9.8932L32.7698 13.2335L36.4712 0.233398H39.992L42.7004 10.0738L42.4296 13.2335Z" fill="#EEEEEE"/>
<path d="M71.0076 0.369402C73.7611 0.369402 76.5146 0.188845 79.2229 0.414541C82.7438 0.730516 84.6396 2.62636 85.3167 6.10209C85.723 8.04307 85.6778 10.0292 85.1813 11.9702C84.4139 15.0848 82.2924 16.8001 78.8167 17.1612C78.3201 17.2515 77.7785 17.2063 77.2819 17.2515H71.0076V0.369402ZM72.5874 13.7306C72.5874 13.7306 76.3791 13.8209 78.1396 13.7306C80.1257 13.6403 81.525 12.557 81.8861 10.616C82.0667 9.39725 82.0667 8.04307 81.8861 6.82432C81.5701 4.92847 80.3965 3.79998 78.5007 3.66457C76.65 3.52915 72.6326 3.66457 72.6326 3.66457L74.5284 4.07082L74.4833 13.2341L72.5874 13.7306Z" fill="#EEEEEE"/>
<path d="M1.44372 10.164L3.38471 10.7508V17.2058H-0.000732422V0.278538C0.224964 0.278538 0.45066 0.233398 0.676356 0.233398H7.58266C8.03405 0.233398 8.53059 0.278538 9.02712 0.368816C12.7285 0.910487 14.489 4.29593 12.8188 7.68137C12.2771 8.76472 11.3744 9.39666 10.2007 9.84806C11.2389 12.2856 12.2771 14.678 13.3605 17.2509H9.56879L6.40904 10.2092H1.44372V10.164ZM3.33957 7.00428C3.33957 7.00428 6.86043 7.09456 8.53059 7.00428C9.65907 6.91401 10.2459 6.1015 10.2007 5.10844C10.1105 4.11537 9.47851 3.43828 8.30489 3.39315H1.44372L3.38471 4.02509V7.00428H3.33957Z" fill="#EEEEEE"/>
<path d="M66.2546 0.276855H69.64V17.2041H68.2407C68.2407 17.2041 60.2059 8.94359 56.3691 5.06161C56.3691 5.15189 57.9489 7.2283 57.9489 7.2283V17.2041H54.6086V0.321995H55.7823L67.699 12.4645L66.2546 10.2978V0.276855Z" fill="#EEEEEE"/>
<path d="M27.1289 14.0451V17.2048H14.7156V0.322754H26.2261V3.43736H16.2954L18.101 3.93389V7.09364H25.4136V10.1631H16.2954L18.101 10.7951V14.0451H27.1289Z" fill="#EEEEEE"/>
<path d="M53.2622 0.276855H49.967V17.2041H53.2622V0.276855Z" fill="#EEEEEE"/>
</svg>
