<svg width="53" height="40" viewBox="0 0 53 40" fill="none" xmlns="http://www.w3.org/2000/svg">
<path fill-rule="evenodd" clip-rule="evenodd" d="M26.3846 27.2614L32.2801 23.8329L38.1756 20.4461V13.6307V6.81536L32.2801 3.38677L26.3846 0L20.4891 3.38677L14.5936 6.77355V13.5889V20.4043L20.4891 23.8329L26.3846 27.2614ZM29.4787 12.3345H34.078C34.6634 12.3345 35.1651 12.8363 35.1651 13.4217C35.1651 14.007 34.6634 14.5088 34.078 14.5088H29.4787C28.8933 14.5088 28.3916 14.007 28.3916 13.4217C28.3916 12.7945 28.8933 12.3345 29.4787 12.3345ZM17.6041 13.4217C17.6041 12.8363 18.1058 12.3345 18.6912 12.3345H23.2905C23.8759 12.3345 24.3776 12.8363 24.3776 13.4217C24.3776 14.007 23.8759 14.5088 23.2905 14.5088H18.6912C18.064 14.5088 17.6041 14.007 17.6041 13.4217Z" fill="#EEEEEE"/>
<path fill-rule="evenodd" clip-rule="evenodd" d="M32.0677 35.5822C32.4022 35.2477 32.6113 34.7878 32.6113 34.286C32.6113 33.7843 32.4022 33.3243 32.0677 32.9898C31.7332 32.6554 31.3151 32.4463 30.8134 32.4463H28.9736H28.5973H28.4301H28.2628V37.9655V39.0526H28.9736V33.1989H30.7297C31.0224 33.1989 31.3151 33.3243 31.5242 33.5334C31.7332 33.7425 31.8587 33.9933 31.8587 34.3278C31.8587 34.6205 31.7332 34.9132 31.5242 35.1223C31.3151 35.3313 31.0642 35.4568 30.7297 35.4568H29.6844L29.0572 36.1676H30.5625L32.1931 39.0944H33.0294L31.3569 36.0839C31.6496 35.9167 31.9005 35.7913 32.0677 35.5822Z" fill="#EEEEEE"/>
<path fill-rule="evenodd" clip-rule="evenodd" d="M3.80416 35.5822C4.13866 35.2477 4.34772 34.7878 4.34772 34.286C4.34772 33.7843 4.13866 33.3243 3.80416 32.9898C3.46967 32.6554 3.05155 32.4463 2.5498 32.4463H0.710072H0.375576H0.166516H-0.000732422V37.9655V39.0526H0.710072V33.1989H2.46618C2.75886 33.1989 3.05155 33.3243 3.26061 33.5334C3.46967 33.7425 3.5951 33.9933 3.5951 34.3278C3.5951 34.6205 3.46967 34.9132 3.26061 35.1223C3.05155 35.3313 2.80067 35.4568 2.46618 35.4568H1.37906L0.751884 36.1676H2.25712L3.88779 39.0944H4.72403L3.05155 36.0839C3.34423 35.9167 3.5951 35.7913 3.80416 35.5822Z" fill="#EEEEEE"/>
<path fill-rule="evenodd" clip-rule="evenodd" d="M36.4239 32.4463L34.2079 39.0108H34.9605L36.9675 33.1571H37.302L38.4309 36.5021H36.3403L35.5877 37.2129H38.6818L39.2671 39.0108H40.0616L37.8037 32.4463H36.4239Z" fill="#EEEEEE"/>
<path fill-rule="evenodd" clip-rule="evenodd" d="M49.5038 35.665H51.2181L51.9289 34.9542H49.5038V33.1981H52.0126L52.7234 32.4873C51.7617 32.4873 49.6293 32.4873 48.7512 32.4873V39.0936H51.9707L52.6816 38.3828H49.462V35.665H49.5038Z" fill="#EEEEEE"/>
<path fill-rule="evenodd" clip-rule="evenodd" d="M17.7331 35.5818C18.1094 35.2473 18.3184 34.7455 18.3184 34.2438C18.3184 33.742 18.1094 33.2821 17.7749 32.9476C17.4404 32.6131 17.0222 32.4041 16.5205 32.4041C15.6843 32.4041 14.8062 32.4041 13.97 32.4041V35.749V39.0104H14.6808V33.1567H16.4369C16.7296 33.1567 17.0222 33.2821 17.2313 33.4912C17.4404 33.7002 17.5658 33.9511 17.5658 34.2856C17.5658 34.9964 17.0641 35.3727 16.3951 35.3727H15.3916L14.6808 36.0835H16.8132C17.1059 36.0835 17.3986 36.2089 17.6076 36.418C17.8167 36.6271 17.9421 36.8779 17.9421 37.2124C17.9421 37.5051 17.8167 37.7978 17.6076 38.0069C17.3986 38.2159 17.1477 38.3414 16.8132 38.3414H15.4334L14.7226 39.0522H16.8132C16.9386 39.0522 17.0641 39.0522 17.1895 39.0104C17.524 38.9267 17.8585 38.7595 18.1094 38.5086C18.4439 38.1741 18.6529 37.7142 18.6529 37.2124C18.6529 36.7107 18.4439 36.2508 18.1094 35.9163C18.0257 35.7908 17.9003 35.6654 17.7331 35.5818Z" fill="#EEEEEE"/>
<path fill-rule="evenodd" clip-rule="evenodd" d="M44.2842 33.1577C44.7442 33.1577 45.1623 33.2831 45.5386 33.4922C45.9149 33.7013 46.2494 34.0358 46.4585 34.4121L47.0856 34.0358C46.793 33.534 46.3748 33.1159 45.8731 32.8232C45.3713 32.5305 44.8278 32.3633 44.2424 32.3633C43.3226 32.3633 42.5281 32.7396 41.9428 33.325C41.3574 33.9103 40.9811 34.7466 40.9811 35.6246C40.9811 36.5445 41.3574 37.3389 41.9428 37.9243C42.5281 38.5096 43.3644 38.886 44.2424 38.886C44.8278 38.886 45.3713 38.7187 45.8731 38.426C46.3748 38.1333 46.793 37.7152 47.0856 37.2135L46.4585 36.8372C46.2494 37.2135 45.9149 37.548 45.5386 37.757C45.1623 37.9661 44.7024 38.0915 44.2842 38.0915C43.5734 38.0915 42.9462 37.7988 42.4863 37.3389C42.0264 36.879 41.7337 36.2518 41.7337 35.541C41.7337 34.8302 42.0264 34.203 42.4863 33.7431C42.9462 33.4504 43.5734 33.1577 44.2842 33.1577Z" fill="#EEEEEE"/>
<path fill-rule="evenodd" clip-rule="evenodd" d="M23.2071 32.4463C22.2873 32.4463 21.4928 32.8226 20.9075 33.408C20.3221 33.9933 19.9458 34.8296 19.9458 35.7076C19.9458 36.6275 20.3221 37.4219 20.9075 38.0073C21.4928 38.5927 22.3291 38.969 23.2071 38.969C24.127 38.969 24.9214 38.5927 25.5068 38.0073C26.0922 37.4219 26.4685 36.5857 26.4685 35.7076C26.4685 34.7878 26.0922 33.9933 25.5068 33.408C24.9632 32.7808 24.127 32.4463 23.2071 32.4463ZM25.0469 37.5055C24.5869 37.9655 23.9598 38.2582 23.249 38.2582C22.5381 38.2582 21.911 37.9655 21.451 37.5055C20.9911 37.0456 20.6984 36.4184 20.6984 35.7076C20.6984 34.9968 20.9911 34.3696 21.451 33.9097C21.911 33.4498 22.5381 33.1571 23.249 33.1571C23.9598 33.1571 24.5869 33.4498 25.0469 33.9097C25.5068 34.3696 25.7995 34.9968 25.7995 35.7076C25.7995 36.4184 25.5068 37.0456 25.0469 37.5055Z" fill="#EEEEEE"/>
<path fill-rule="evenodd" clip-rule="evenodd" d="M8.95006 32.4463C8.03019 32.4463 7.23577 32.8226 6.6504 33.408C6.06503 33.9933 5.68872 34.8296 5.68872 35.7076C5.68872 36.6275 6.06503 37.4219 6.6504 38.0073C7.23577 38.5927 8.07201 38.969 8.95006 38.969C9.86992 38.969 10.6644 38.5927 11.2497 38.0073C11.8351 37.4219 12.2114 36.5857 12.2114 35.7076C12.2114 34.7878 11.8351 33.9933 11.2497 33.408C10.6644 32.7808 9.86992 32.4463 8.95006 32.4463ZM10.748 37.5055C10.288 37.9655 9.66086 38.2582 8.95006 38.2582C8.23925 38.2582 7.61207 37.9655 7.15214 37.5055C6.69221 37.0456 6.39953 36.4184 6.39953 35.7076C6.39953 34.9968 6.69221 34.3696 7.15214 33.9097C7.61207 33.4498 8.23925 33.1571 8.95006 33.1571C9.66086 33.1571 10.288 33.4498 10.748 33.9097C11.2079 34.3696 11.5006 34.9968 11.5006 35.7076C11.5006 36.4184 11.2079 37.0456 10.748 37.5055Z" fill="#EEEEEE"/>
</svg>
