<svg width="101" height="28" viewBox="0 0 101 28" fill="none" xmlns="http://www.w3.org/2000/svg">
<path d="M4.57809 4.93864V27.121H9.3888V4.97149H14.7312V27.121H30.0349V5.20509H35.4791V27.1161H40.5238V5.20509H46.0369V27.1161H51.0817V0.126709H25.1901V22.2089H19.6441V0.160776H-0.000244141V4.93864H4.57809Z" fill="#EEEEEE"/>
<path d="M58.7119 1.04812H56.6135V0.343262H61.6469V1.04812H59.5481V6.63628H58.7115V1.04812H58.7119Z" fill="#EEEEEE"/>
<path d="M65.3175 5.19017C65.1139 6.19393 64.3933 6.74021 63.3696 6.74021C61.9161 6.74021 61.2291 5.73565 61.1841 4.34337C61.1841 2.97705 62.0836 1.97168 63.325 1.97168C64.9387 1.97168 65.4319 3.47913 65.3889 4.58103H61.9778C61.9506 5.37389 62.4007 6.07875 63.3968 6.07875C64.0124 6.07875 64.4448 5.78026 64.5778 5.19017H65.3175ZM64.5956 3.9216C64.5603 3.20619 64.0226 2.63435 63.2816 2.63435C62.4985 2.63435 62.0301 3.22444 61.9782 3.9216H64.5956Z" fill="#EEEEEE"/>
<path d="M69.222 3.54037C69.1072 2.96773 68.7098 2.63273 68.0942 2.63273C67.0089 2.63273 66.6747 3.48805 66.6747 4.41354C66.6747 5.2506 67.0531 6.07794 68.0049 6.07794C68.7284 6.07794 69.1604 5.65575 69.2565 4.96834H70.023C69.8559 6.07794 69.1604 6.7394 68.0143 6.7394C66.6208 6.7394 65.8818 5.77053 65.8818 4.41313C65.8818 3.04762 66.5867 1.97168 68.0313 1.97168C69.0634 1.97168 69.8916 2.45632 69.9974 3.54078H69.222V3.54037Z" fill="#EEEEEE"/>
<path d="M70.7329 0.342285H71.4824V2.74886H71.4998C71.7464 2.20298 72.39 1.97263 72.9363 1.97263C74.1343 1.97263 74.505 2.66005 74.505 3.63825V6.63491H73.7559V3.55065C73.7559 2.99544 73.4035 2.63409 72.83 2.63409C71.9228 2.63409 71.4824 3.24161 71.4824 4.06165V6.63532H70.7329V0.342285Z" fill="#EEEEEE"/>
<path d="M75.5693 2.07794H76.2737V2.80104H76.292C76.6091 2.23529 77.1205 1.97168 77.7727 1.97168C78.9711 1.97168 79.3409 2.6591 79.3409 3.63731V6.63396H78.5919V3.5497C78.5919 2.9945 78.239 2.63314 77.6668 2.63314C76.7596 2.63314 76.3187 3.24067 76.3187 4.0607V6.63437H75.5688V2.07794H75.5693Z" fill="#EEEEEE"/>
<path d="M81.2354 1.25966H80.4863V0.342285H81.2354V1.25966ZM80.4867 2.07888H81.2358V6.63491H80.4867V2.07888Z" fill="#EEEEEE"/>
<path d="M82.9429 5.19911C82.9705 5.86827 83.5517 6.07916 84.1681 6.07916C84.6349 6.07916 85.2704 5.97372 85.2704 5.40188C85.2704 4.82031 84.5303 4.72217 83.7804 4.55508C83.0402 4.38799 82.2908 4.14101 82.2908 3.26785C82.2908 2.35129 83.198 1.9729 83.9909 1.9729C84.9954 1.9729 85.798 2.28964 85.8601 3.40087H85.1106C85.0575 2.8193 84.5469 2.63396 84.0537 2.63396C83.604 2.63396 83.0836 2.75847 83.0836 3.21634C83.0836 3.7533 83.8769 3.84212 84.5728 4.00921C85.3223 4.17711 86.0629 4.42328 86.0629 5.30496C86.0629 6.3886 85.0502 6.74103 84.1235 6.74103C83.1015 6.74103 82.2376 6.32696 82.1938 5.19951H82.9425V5.19911H82.9429Z" fill="#EEEEEE"/>
<path d="M89.807 3.54037C89.6935 2.96773 89.2965 2.63273 88.6788 2.63273C87.5951 2.63273 87.261 3.48805 87.261 4.41354C87.261 5.2506 87.6402 6.07794 88.5916 6.07794C89.3135 6.07794 89.7458 5.65575 89.8427 4.96834H90.61C90.4426 6.07794 89.7458 6.7394 88.5997 6.7394C87.207 6.7394 86.4673 5.77053 86.4673 4.41313C86.4673 3.04762 87.1721 1.97168 88.6175 1.97168C89.6485 1.97168 90.4774 2.45632 90.5837 3.54078H89.807V3.54037Z" fill="#EEEEEE"/>
<path d="M91.436 0.342285H92.1843V2.74886H92.2029C92.4495 2.20298 93.0923 1.97263 93.6394 1.97263C94.8379 1.97263 95.2077 2.66005 95.2077 3.63825V6.63491H94.4582V3.55065C94.4582 2.99544 94.105 2.63409 93.5336 2.63409C92.6255 2.63409 92.1843 3.24161 92.1843 4.06165V6.63532H91.436V0.342285Z" fill="#EEEEEE"/>
<path d="M100.11 5.19017C99.9064 6.19393 99.1841 6.74021 98.1617 6.74021C96.7074 6.74021 96.02 5.73565 95.9753 4.34337C95.9753 2.97705 96.8757 1.97168 98.1171 1.97168C99.73 1.97168 100.223 3.47913 100.179 4.58103H96.7682C96.7426 5.37389 97.192 6.07875 98.1873 6.07875C98.8045 6.07875 99.2368 5.78026 99.369 5.19017H100.11ZM99.3865 3.9216C99.3524 3.20619 98.8134 2.63435 98.0741 2.63435C97.2889 2.63435 96.8226 3.22444 96.769 3.9216H99.3865Z" fill="#EEEEEE"/>
<path d="M61.6733 14.5296C61.6733 16.1162 60.7653 16.952 59.197 16.952C57.5748 16.952 56.614 16.2034 56.614 14.5296V10.5098H57.4519V14.5296C57.4519 15.6392 58.0858 16.2468 59.197 16.2468C60.2543 16.2468 60.8359 15.6392 60.8359 14.5296V10.5098H61.6733V14.5296Z" fill="#EEEEEE"/>
<path d="M62.7188 12.2483H63.4237V12.9706H63.4423C63.7595 12.4057 64.2709 12.1421 64.923 12.1421C66.121 12.1421 66.4913 12.8295 66.4913 13.8077V16.8044H65.7423V13.7201C65.7423 13.1641 65.3898 12.8036 64.8168 12.8036C63.9087 12.8036 63.4683 13.4111 63.4683 14.2303V16.8048H62.718L62.7188 12.2483Z" fill="#EEEEEE"/>
<path d="M68.3856 11.4274H67.6357V10.51H68.3856V11.4274ZM67.6357 12.2474H68.3852V16.8034H67.6357V12.2474Z" fill="#EEEEEE"/>
<path d="M71.5709 16.8037H70.7695L69.0771 12.2468H69.9138L71.1925 16.0465H71.2108L72.4522 12.2468H73.2365L71.5709 16.8037Z" fill="#EEEEEE"/>
<path d="M77.6482 15.3598C77.4455 16.3643 76.7228 16.9106 75.7003 16.9106C74.2468 16.9106 73.5582 15.9061 73.5144 14.5138C73.5144 13.1475 74.4131 12.1421 75.6557 12.1421C77.2686 12.1421 77.7622 13.6495 77.7172 14.7514H74.3073C74.2817 15.5443 74.7294 16.2492 75.7267 16.2492C76.3436 16.2492 76.7751 15.9499 76.9081 15.3598H77.6482ZM76.9251 14.0908C76.8915 13.3754 76.3529 12.8044 75.6119 12.8044C74.8276 12.8044 74.362 13.3944 74.3077 14.0908H76.9251Z" fill="#EEEEEE"/>
<path d="M78.5959 12.2472H79.2999V13.2072H79.3178C79.6799 12.4751 80.1812 12.115 80.9927 12.141V12.9346C79.7854 12.9346 79.3449 13.6221 79.3449 14.7771V16.804H78.5955V12.2472H78.5959Z" fill="#EEEEEE"/>
<path d="M82.2481 15.3687C82.2753 16.0379 82.8568 16.2496 83.4729 16.2496C83.9409 16.2496 84.5752 16.1441 84.5752 15.5715C84.5752 14.9899 83.8346 14.8926 83.0856 14.7255C82.345 14.5576 81.5955 14.3114 81.5955 13.4383C81.5955 12.5217 82.5032 12.1433 83.2968 12.1433C84.3014 12.1433 85.1032 12.4592 85.1652 13.5713H84.4154C84.3622 12.9897 83.8512 12.8044 83.3581 12.8044C82.9083 12.8044 82.388 12.9281 82.388 13.3859C82.388 13.9229 83.1805 14.0117 83.878 14.1796C84.6271 14.3467 85.3672 14.5937 85.3672 15.4745C85.3672 16.5582 84.3537 16.9114 83.4291 16.9114C82.4067 16.9114 81.5432 16.4974 81.499 15.3691H82.2481V15.3687Z" fill="#EEEEEE"/>
<path d="M87.0481 11.4274H86.2991V10.51H87.0481V11.4274ZM86.2995 12.2474H87.0485V16.8034H86.2995V12.2474Z" fill="#EEEEEE"/>
<path d="M89.3537 12.2465H90.2606V12.908H89.3537V15.7368C89.3537 16.0799 89.4499 16.1415 89.9171 16.1415H90.2602V16.803H89.6875C88.9121 16.803 88.6039 16.6444 88.6039 15.8065V12.9084H87.8276V12.2469H88.6039V10.8806H89.3534V12.2469H89.3537V12.2465Z" fill="#EEEEEE"/>
<path d="M95.2557 16.7873C95.1223 16.8664 94.956 16.911 94.7176 16.911C94.3307 16.911 94.0833 16.6989 94.0833 16.2062C93.6688 16.69 93.1132 16.911 92.4789 16.911C91.6507 16.911 90.9714 16.5404 90.9714 15.6335C90.9714 14.6022 91.7396 14.3828 92.515 14.2315C93.3431 14.073 94.0488 14.1261 94.0488 13.5624C94.0488 12.9106 93.5098 12.8044 93.0353 12.8044C92.4006 12.8044 91.933 12.9986 91.8973 13.6678H91.1491C91.1921 12.5399 92.0648 12.1429 93.0795 12.1429C93.8975 12.1429 94.7881 12.3282 94.7881 13.3945V15.739C94.7881 16.0922 94.7881 16.25 95.0262 16.25C95.0874 16.25 95.1588 16.2415 95.2557 16.2066V16.7873ZM94.0391 14.4517C93.7475 14.663 93.1846 14.6728 92.6821 14.7616C92.1877 14.8488 91.7647 15.0244 91.7647 15.58C91.7647 16.0744 92.1877 16.25 92.6468 16.25C93.6335 16.25 94.0391 15.6335 94.0391 15.2195V14.4517ZM91.8 10.6699H92.5933V11.5873H91.8V10.6699ZM93.4567 10.6699H94.2504V11.5873H93.4567V10.6699Z" fill="#EEEEEE"/>
<path d="M97.0713 12.2465H97.9789V12.908H97.0713V15.7368C97.0713 16.0799 97.1682 16.1415 97.6362 16.1415H97.9793V16.803H97.4067C96.6313 16.803 96.323 16.6444 96.323 15.8065V12.9084H95.5464V12.2469H96.3226V10.8806H97.0713V12.2465Z" fill="#EEEEEE"/>
<path d="M56.6144 20.7195H57.7601L59.7421 26.0083L61.735 20.7195H62.8799V27.0121H62.087V21.7772H62.0696L60.1042 27.0121H59.3896L57.4243 21.7772H57.4065V27.0121H56.614L56.6144 20.7195Z" fill="#EEEEEE"/>
<path d="M67.6552 27.0143H66.9496V26.2911H66.9317C66.615 26.8553 66.1028 27.1197 65.4518 27.1197C64.2526 27.1197 63.8835 26.4331 63.8835 25.4541V22.4582H64.6322V25.5425C64.6322 26.0977 64.9858 26.459 65.5577 26.459C66.4657 26.459 66.9066 25.8515 66.9066 25.0315V22.4578H67.6552V27.0143ZM64.5434 20.8794H65.3362V21.7968H64.5434V20.8794ZM66.2005 20.8794H66.9942V21.7968H66.2005V20.8794Z" fill="#EEEEEE"/>
<path d="M68.7611 22.4566H69.4655V23.1797H69.4826C69.8009 22.614 70.3115 22.3503 70.9632 22.3503C72.1621 22.3503 72.5327 23.0378 72.5327 24.016V27.0126H71.7833V23.9284C71.7833 23.3732 71.4309 23.0118 70.8574 23.0118C69.9506 23.0118 69.5093 23.6193 69.5093 24.4386V27.013H68.7603L68.7611 22.4566Z" fill="#EEEEEE"/>
<path d="M76.7373 23.919C76.6229 23.3464 76.2255 23.0114 75.6094 23.0114C74.5246 23.0114 74.1896 23.8659 74.1896 24.7922C74.1896 25.6293 74.5692 26.4566 75.521 26.4566C76.2433 26.4566 76.6773 26.0344 76.7726 25.347H77.5395C77.372 26.4566 76.6773 27.1181 75.5299 27.1181C74.1373 27.1181 73.3967 26.1492 73.3967 24.7918C73.3967 23.4263 74.1024 22.3503 75.5478 22.3503C76.5791 22.3503 77.4081 22.835 77.5131 23.9186H76.7377V23.919H76.7373Z" fill="#EEEEEE"/>
<path d="M78.3706 20.7195H79.1197V23.1261H79.1367C79.3837 22.5794 80.0269 22.3498 80.5728 22.3498C81.7716 22.3498 82.1427 23.0372 82.1427 24.0154V27.0121H81.3936V23.9278C81.3936 23.3726 81.0408 23.0113 80.4677 23.0113C79.5601 23.0113 79.1197 23.6188 79.1197 24.438V27.0125H78.3706V20.7195Z" fill="#EEEEEE"/>
<path d="M87.1208 25.568C86.9184 26.5726 86.1957 27.1189 85.1721 27.1189C83.719 27.1189 83.0304 26.1143 82.9866 24.722C82.9866 23.3557 83.8853 22.3503 85.1291 22.3503C86.742 22.3503 87.2344 23.8578 87.1902 24.9597H83.7794C83.7543 25.7526 84.202 26.4574 85.1981 26.4574C85.8149 26.4574 86.2481 26.1581 86.3795 25.568H87.1208ZM86.3985 24.2999C86.3632 23.5845 85.8263 23.0126 85.0849 23.0126C84.3006 23.0126 83.8338 23.6027 83.7807 24.2999H86.3985Z" fill="#EEEEEE"/>
<path d="M88.0068 22.4566H88.712V23.1797H88.7299C89.047 22.614 89.5568 22.3503 90.2097 22.3503C91.4086 22.3503 91.7784 23.0378 91.7784 24.016V27.0126H91.0282V23.9284C91.0282 23.3732 90.6769 23.0118 90.1047 23.0118C89.1963 23.0118 88.7562 23.6193 88.7562 24.4386V27.013H88.0063V22.4566H88.0068Z" fill="#EEEEEE"/>
</svg>
