<svg width="64" height="40" viewBox="0 0 64 40" fill="none" xmlns="http://www.w3.org/2000/svg">
<path d="M53.1399 9.46198L50.5918 12.0099H46.5891L44.4057 14.1931V12.0099H41.1303V1.45609H53.1399V9.46198ZM39.674 0.000425766L38.9463 2.91195V16.0128H42.222V17.8328H44.041L45.8612 16.0128H48.7722L54.5947 10.1908V0.000425766H39.674Z" fill="#EEEEEE"/>
<path d="M45.1245 8.73511H46.5804V4.36736H45.1245V8.73511ZM49.1274 8.73511H50.583V4.36736H49.1274V8.73511Z" fill="#EEEEEE"/>
<path d="M62.2303 25.475L59.6835 22.9282H54.9518V19.6525H50.948V34.5732H54.9518V26.9305H58.2264V34.5732H62.2303V25.475ZM49.4933 22.9282H43.3068L40.7593 25.475V32.0254L43.3068 34.5734H49.4933V30.5707H44.7619V26.9309H49.4933V22.9282ZM39.3034 22.9282H36.0287V19.6525H32.0249V32.0252L34.5725 34.5732H39.3036V30.5705H36.0289V26.9307H39.3036V22.9282H39.3034ZM30.5692 19.6525H26.5666V21.4727H30.5692V19.6525ZM30.5692 22.9282H26.5666V34.573H30.5692V22.9282ZM25.1109 22.9282H21.1079V30.5705H19.6526V22.9282H15.6494V30.5705H14.1942V22.9282H10.1905V34.5734H22.5639L25.1109 32.0254V22.9282ZM8.73479 22.9282H5.45987V19.6525H1.45683V32.0252L4.0042 34.5732H8.73479V30.5705H5.45987V26.9307H8.73479V22.9282ZM63.6849 24.7473V35.6645L58.2265 39.304H54.5876V37.484L52.0403 39.304H48.7657V37.484L46.9467 39.304H41.1236L39.3036 37.484L38.9391 39.304H33.8451L31.7619 37.484L31.6453 39.304H25.8713L25.6671 37.484L24.1041 39.304H15.285L13.4652 38.5762V39.304H8.73479L3.2759 36.0279L0.000976562 32.7543V18.1972H6.91572L10.1905 21.4727H25.1109V18.1972H37.4838V21.4727H40.7591V23.2918L42.5791 21.4727H46.2174L49.4931 18.1972H56.4073V21.4727H60.4105L63.6849 24.7473Z" fill="#EEEEEE"/>
</svg>
