<svg width="37" height="37" viewBox="0 0 37 37" fill="none" xmlns="http://www.w3.org/2000/svg">
<path fill-rule="evenodd" clip-rule="evenodd" d="M37 18.5C37 28.7173 28.7173 37 18.5 37C8.28273 37 0 28.7173 0 18.5C0 8.28273 8.28273 0 18.5 0C28.7173 0 37 8.28273 37 18.5ZM13.3371 10.0925H23.6546C25.4464 10.0925 26.9049 11.55 26.9049 13.3428V23.6603C26.9049 25.4531 25.4464 26.9106 23.6546 26.9106H13.3371C11.5453 26.9106 10.0868 25.4531 10.0868 23.6603V13.3428C10.0868 11.55 11.5453 10.0925 13.3371 10.0925ZM24.9621 12.0272L24.5903 12.0291L22.1103 12.0361L22.1202 14.8869L24.9621 14.878V12.0272ZM18.4975 15.5397C17.5097 15.5397 16.6355 16.0281 16.0976 16.7737C15.7476 17.2602 15.5379 17.8555 15.5379 18.5002C15.5379 20.1318 16.8659 21.4598 18.4975 21.4598C20.1301 21.4598 21.4581 20.1318 21.4581 18.5002C21.4581 17.8555 21.2485 17.2602 20.8974 16.7737C20.3595 16.0281 19.4854 15.5397 18.4975 15.5397ZM23.6638 25.2719C24.5528 25.2719 25.2756 24.5491 25.2756 23.6601V16.7748H22.765C22.9806 17.3088 23.1042 17.8912 23.1042 18.5013C23.1042 21.0367 21.0414 23.1004 18.5051 23.1004C15.9697 23.1004 13.907 21.0367 13.907 18.5013C13.907 17.8912 14.0286 17.3088 14.2461 16.7748H11.7345V23.6601C11.7345 24.5491 12.4573 25.2719 13.3463 25.2719H23.6638Z" fill="#EEEEEE"/>
</svg>
