<svg width="37" height="37" viewBox="0 0 37 37" fill="none" xmlns="http://www.w3.org/2000/svg">
<path fill-rule="evenodd" clip-rule="evenodd" d="M37 18.5C37 28.7173 28.7173 37 18.5 37C8.28273 37 0 28.7173 0 18.5C0 8.28273 8.28273 0 18.5 0C28.7173 0 37 8.28273 37 18.5ZM14.6476 13.8049H11.3696V25.2291H14.6476V13.8049ZM12.9033 12.3745H12.927C14.1591 12.3745 14.9265 11.4979 14.9265 10.392C14.9027 9.26456 14.1591 8.41062 12.9498 8.41062C11.7394 8.41062 10.9474 9.26671 10.9474 10.3952C10.9474 11.5012 11.7167 12.3745 12.9033 12.3745ZM24.0539 25.2297H27.7709V18.8764C27.7709 15.3389 25.9406 13.6946 23.6109 13.6946C21.7331 13.6946 20.5563 14.8134 20.3388 15.5974V13.8044H16.6564C16.7038 14.7563 16.6564 25.2297 16.6564 25.2297H20.3388V19.0476C20.3388 19.0064 20.3386 18.9652 20.3384 18.9242C20.3368 18.6222 20.3353 18.3301 20.4189 18.1139C20.672 17.4258 21.2159 16.714 22.1939 16.714C23.4724 16.714 24.0539 17.7694 24.0539 19.3168V25.2297Z" fill="#EEEEEE"/>
</svg>
